<svg width="86" height="88" viewBox="0 0 86 88" fill="none" xmlns="http://www.w3.org/2000/svg">
<g clip-path="url(#clip0_703_6888)">
<path d="M55.8931 30.1413C55.8806 37.1344 53.9534 42.6396 50.2941 47.5557C49.9555 48.0112 49.954 48.2599 50.3519 48.6502C52.0028 50.2655 53.632 51.9042 55.2549 53.5491C55.5482 53.846 55.7917 53.9191 56.2036 53.7465C60.3841 51.9882 64.4616 52.823 67.6543 56.0211C72.6603 61.0335 77.7052 66.0101 82.6909 71.0427C85.648 74.0278 86.383 77.6254 84.9723 81.5091C83.5991 85.2886 80.7466 87.4652 76.7097 87.9285C73.5544 88.2907 70.8033 87.333 68.5391 85.0865C63.491 80.0772 58.4242 75.0866 53.4197 70.0353C50.2302 66.8155 49.4936 63.0282 51.1836 58.8134C51.3709 58.3469 51.3116 58.0733 50.9651 57.7344C49.3688 56.1734 47.7802 54.6047 46.2276 53.0018C45.7548 52.5152 45.4317 52.481 44.8731 52.8961C39.4911 56.8871 33.4099 58.7481 26.7343 58.3158C17.487 57.7173 10.2168 53.4962 5.13121 45.7817C-0.979563 36.5141 -0.811033 24.4013 5.60091 15.3264C11.6789 6.71795 20.1569 2.88091 30.6635 3.51679C34.6973 3.76088 38.4487 5.03419 41.9784 6.97914C42.4029 7.2139 42.5933 7.48287 42.6432 7.99437C43.0832 12.4253 46.4554 15.698 50.8918 15.984C51.5019 16.0229 51.7547 16.3308 52.0122 16.7692C54.6026 21.1581 55.9227 25.8891 55.89 30.1428L55.8931 30.1413ZM28.2698 52.4219C39.6799 52.4934 49.4515 43.4325 49.826 31.696C50.2114 19.6656 40.9158 9.81494 28.8627 9.4387C16.9174 9.06401 7.04278 18.4141 6.71976 30.53C6.39987 42.5464 16.2011 52.4857 28.2682 52.4235L28.2698 52.4219Z" fill="#15A1DB"/>
<path d="M51.4302 14.465C47.3839 14.4137 44.0929 11.1255 44.1553 7.19363C44.2193 3.11872 47.5462 -0.0637789 51.6752 -3.55741e-05C55.595 0.0605983 58.7425 3.40168 58.6832 7.43772C58.6255 11.3183 55.3282 14.5117 51.4302 14.4619V14.465ZM50.973 7.89947C50.3815 7.26826 49.9072 6.71789 49.3844 6.21883C48.9849 5.83637 48.4996 5.74619 48.0705 6.18307C47.6585 6.60284 47.6835 7.09413 48.0721 7.50302C48.8024 8.27416 49.5545 9.02664 50.3285 9.7527C50.7717 10.1694 51.2694 10.1507 51.7126 9.70916C52.9438 8.4856 54.175 7.26204 55.3969 6.0276C55.8026 5.61715 55.8603 5.13985 55.4281 4.7263C55.0099 4.32518 54.5386 4.35783 54.1079 4.75117C53.916 4.9253 53.7319 5.1072 53.5493 5.29222C52.7316 6.11777 51.9155 6.94488 50.973 7.89947Z" fill="#15A1DB"/>
<path d="M37.3548 47.0628C37.3548 46.161 37.3548 45.2577 37.3548 44.356C37.3548 41.6104 37.347 38.8632 37.3595 36.1176C37.3626 35.5283 37.2549 35.0479 36.5464 35.0666C35.877 35.0837 35.8052 35.575 35.8052 36.1129C35.8052 39.7401 35.7803 43.3672 35.8068 46.9944C35.8115 47.6722 35.6164 48.0049 34.9454 48.2117C30.5402 49.5705 26.1491 49.5767 21.7392 48.2428C21.0074 48.022 20.7093 47.6893 20.7202 46.8902C20.767 43.4978 20.7452 40.1023 20.7483 36.7099C20.7483 36.4503 20.739 36.1922 20.7468 35.9326C20.7608 35.3573 20.4752 35.0371 19.9072 35.0526C19.3611 35.0666 19.1598 35.4226 19.1613 35.9435C19.1676 38.0936 19.1613 40.2438 19.1613 42.394C19.1613 43.9425 19.1613 45.491 19.1613 47.2867C18.1798 46.7161 17.384 46.2077 16.5491 45.7786C15.2695 45.1194 14.7749 44.2005 14.8295 42.6863C14.9652 38.9612 14.8732 35.2267 14.8747 31.497C14.8763 28.0517 17.1156 25.8331 20.5548 25.7336C22.4461 25.6792 24.2562 25.8207 26.0679 26.4706C27.7751 27.0831 29.5681 26.9199 31.2627 26.2436C33.3069 25.4274 35.4198 25.5455 37.489 25.9047C39.9124 26.326 41.6679 28.5881 41.6804 31.0368C41.7007 35.3371 41.696 39.6375 41.6616 43.9378C41.6585 44.2861 41.4369 44.7602 41.1607 44.9546C40.0029 45.7677 38.7857 46.4953 37.5904 47.254C37.5108 47.1903 37.4328 47.1265 37.3532 47.0628H37.3548Z" fill="#15A1DB"/>
<path d="M28.2182 24.8054C24.9943 24.8428 22.1668 22.0303 22.1371 18.756C22.1059 15.3434 24.8102 12.5683 28.1886 12.5465C31.5155 12.5247 34.4102 15.2859 34.4476 18.5151C34.4882 22.0256 31.7745 24.7635 28.2182 24.8039V24.8054Z" fill="#15A1DB"/>
</g>
<defs>
<clipPath id="clip0_703_6888">
<rect width="85" height="88" fill="white" transform="translate(0.666748)"/>
</clipPath>
</defs>
</svg>
