<svg width="73" height="86" viewBox="0 0 73 86" fill="none" xmlns="http://www.w3.org/2000/svg">
<g clip-path="url(#clip0_702_6877)">
<path d="M72.3334 42.954C72.3334 56.898 72.3334 70.8364 72.3334 84.7804C72.3334 85.8907 72.3334 85.8964 71.2414 85.8964C65.9132 85.9022 60.5849 85.9079 55.2567 85.9137C49.6426 85.9137 44.0285 85.8734 38.4144 85.9367C36.2362 85.9597 34.058 85.8677 31.8799 85.9022C30.8908 85.9194 30.8908 85.8907 30.8908 84.907C30.8908 74.0693 30.8908 63.2315 30.8908 52.3938C30.8908 35.3031 30.8908 18.2067 30.8908 1.11596C30.8908 0.0172272 30.8908 0.0114746 31.9999 0.0114746C45.0804 0.0114746 58.1609 0.0172271 71.2357 0.0229796C72.3334 0.0229796 72.3334 0.0287322 72.3334 1.13897C72.3334 15.083 72.3334 29.0214 72.3334 42.9655V42.954ZM36.4878 70.8191C36.4878 72.3435 36.5106 73.8737 36.4763 75.3981C36.4649 76.0136 36.6764 76.2495 37.2939 76.2437C40.2553 76.2207 43.2167 76.215 46.1724 76.238C46.7898 76.238 46.9785 75.9964 47.0071 75.3923C47.15 72.4125 46.927 69.4327 46.9956 66.4529C47.0128 65.7799 46.7669 65.5325 46.0809 65.5383C43.1424 65.5671 40.2095 65.5671 37.271 65.5383C36.625 65.5325 36.4649 65.7799 36.4763 66.3782C36.5049 67.8566 36.4878 69.335 36.4878 70.8191ZM36.4935 33.5716C36.4935 35.073 36.5163 36.5802 36.482 38.0816C36.4649 38.7431 36.7336 38.979 37.3567 38.979C40.3182 38.9675 43.2738 38.9675 46.2353 38.9847C46.8298 38.9847 47.0699 38.7086 47.0699 38.1794C47.0699 37.4661 47.0071 36.7527 47.0071 36.0394C46.9956 33.7269 46.9842 31.4144 46.9956 29.0962C46.9956 28.5324 46.8298 28.2851 46.2238 28.2908C43.2395 28.3138 40.261 28.3138 37.2767 28.2908C36.6993 28.2908 36.4763 28.4749 36.4878 29.0674C36.5163 30.5688 36.4992 32.0702 36.4935 33.5774V33.5716ZM66.7193 33.6694C66.7193 32.168 66.6964 30.6608 66.7307 29.1594C66.7479 28.5209 66.5764 28.2793 65.896 28.2851C62.9632 28.3196 60.0247 28.3138 57.0861 28.2851C56.423 28.2793 56.2286 28.5094 56.2343 29.1537C56.2572 32.0645 56.2457 34.9752 56.2457 37.886C56.2457 38.8697 56.3201 38.9675 57.2805 38.9675C60.2133 38.9675 63.1519 39.0365 66.0847 38.9329C66.6335 38.9157 66.7193 38.7029 66.7136 38.2542C66.7021 36.7297 66.7136 35.1996 66.7136 33.6752L66.7193 33.6694ZM66.7193 70.9629C66.7193 69.4385 66.7079 67.9083 66.725 66.3839C66.725 65.9295 66.6164 65.6821 66.1076 65.6476C63.009 65.4405 59.9103 65.5958 56.8117 65.5613C56.3086 65.5556 56.2572 65.8892 56.2572 66.2861C56.2572 69.3637 56.2686 72.4356 56.2457 75.5132C56.2457 76.0884 56.463 76.2495 57.0004 76.2495C60.0075 76.2322 63.009 76.2265 66.0161 76.2495C66.5364 76.2495 66.7307 76.0769 66.725 75.5477C66.7021 74.0232 66.7193 72.4931 66.7193 70.9687V70.9629ZM56.2343 52.1062C56.2343 52.1062 56.2515 52.1062 56.2629 52.1062C56.2629 53.6536 56.28 55.2068 56.2572 56.7542C56.2457 57.3122 56.463 57.5078 57.0061 57.5078C59.9847 57.5078 62.9689 57.41 65.9475 57.6056C66.5992 57.6516 66.7422 57.3755 66.7364 56.7715C66.7136 53.7917 66.7079 50.8119 66.7364 47.8321C66.7422 47.1475 66.4563 46.9404 65.8617 46.9404C62.8317 46.9404 59.8017 46.9404 56.7717 46.9289C56.3486 46.9289 56.2114 47.0728 56.2172 47.5214C56.2515 49.0459 56.2286 50.576 56.2286 52.1004L56.2343 52.1062ZM66.7193 14.9565C66.7193 13.5011 66.685 12.0457 66.7364 10.5903C66.7593 9.87127 66.5478 9.63542 65.8217 9.64693C62.8374 9.67569 59.8532 9.66418 56.8746 9.63542C56.4058 9.63542 56.2457 9.76773 56.2515 10.2337C56.2629 13.3113 56.2686 16.3889 56.2515 19.4665C56.2515 20.0877 56.5259 20.2315 57.0747 20.2258C60.059 20.2143 63.0433 20.2143 66.0218 20.2315C66.5421 20.2315 66.7364 20.0705 66.7307 19.5355C66.7079 18.0111 66.725 16.4809 66.725 14.9565H66.7193ZM36.482 14.9565C36.482 16.4579 36.4878 17.9593 36.482 19.4607C36.482 19.8921 36.5506 20.2143 37.0823 20.2143C40.2038 20.2143 43.331 20.2143 46.4525 20.2143C46.8813 20.2143 47.0471 19.9957 47.0471 19.593C47.0242 16.5442 46.9956 13.4896 46.9956 10.4408C46.9956 9.84251 46.7498 9.65268 46.1838 9.65268C43.2052 9.65268 40.221 9.65268 37.2424 9.62392C36.6478 9.62392 36.4649 9.85977 36.4763 10.435C36.5049 11.9364 36.4878 13.4378 36.4878 14.9392L36.482 14.9565ZM36.482 52.2155C36.482 52.2155 36.482 52.2155 36.4878 52.2155C36.4878 53.6709 36.5163 55.1263 36.4763 56.5816C36.4535 57.2719 36.705 57.5078 37.3739 57.5078C40.2381 57.5193 43.1023 57.433 45.9666 57.5596C46.887 57.5998 47.0071 57.4388 47.0071 56.4723C47.0071 53.6824 47.0013 50.8924 46.9899 48.1082C46.9899 47.0555 46.9156 46.9577 45.8694 46.952C43.0051 46.9289 40.1409 46.9519 37.2767 46.9232C36.6421 46.9232 36.4592 47.182 36.4706 47.7803C36.4992 49.2587 36.482 50.7371 36.482 52.2155Z" fill="#15A1DB"/>
<path d="M27.2719 64.6524C27.2719 71.5036 27.2662 78.3491 27.2834 85.2004C27.2834 85.7641 27.1462 85.9137 26.5745 85.9252C21.675 86.0172 16.7755 85.8274 11.8817 85.9309C8.7088 86 5.54158 85.8734 2.36864 85.9942C2.10566 86.0057 1.84839 85.9942 1.58541 85.9942C0.470593 85.9712 0.510612 85.9712 0.442008 84.8897C0.259063 81.9329 0.36197 78.9704 0.356253 76.0136C0.339102 65.4175 0.344819 54.8214 0.339102 44.2252C0.339102 43.3739 0.41914 43.2876 1.28241 43.2876C9.61781 43.2876 17.9589 43.2818 26.2943 43.2876C27.2376 43.2876 27.2662 43.3221 27.2662 44.323C27.2662 51.0995 27.2662 57.8817 27.2662 64.6582L27.2719 64.6524ZM20.24 68.0521C20.24 68.0521 20.24 68.0579 20.24 68.0636C21.0918 68.0636 21.9437 68.0349 22.7955 68.0751C23.4415 68.1039 23.6816 67.8681 23.6702 67.2123C23.6359 65.521 23.6302 63.824 23.6531 62.1328C23.6588 61.5345 23.4701 61.2527 22.847 61.2584C21.069 61.2699 19.2967 61.2642 17.5187 61.2412C17.0099 61.2354 16.867 61.4655 16.8727 61.9372C16.8898 63.7263 16.8956 65.5153 16.8727 67.3043C16.8613 67.9198 17.1185 68.0867 17.6845 68.0694C18.5363 68.0349 19.3882 68.0636 20.24 68.0636V68.0521ZM20.2572 80.0979C21.109 80.0979 21.9608 80.0806 22.8127 80.1094C23.4072 80.1324 23.6759 79.9368 23.6645 79.2925C23.6302 77.5495 23.6302 75.8065 23.6473 74.0635C23.6473 73.5113 23.4358 73.2812 22.8927 73.2869C21.0918 73.2927 19.291 73.2927 17.4901 73.2812C17.0328 73.2812 16.8613 73.4537 16.8613 73.9139C16.8784 75.749 16.8784 77.5898 16.8613 79.4249C16.8613 79.9138 17.0671 80.1094 17.5473 80.0979C18.4449 80.0806 19.3482 80.0979 20.2457 80.0979H20.2572ZM7.45106 61.2469C7.45106 61.2469 7.45106 61.2469 7.45106 61.2527C6.57636 61.2527 5.69594 61.2757 4.82124 61.2469C4.26669 61.2297 4.07231 61.454 4.07802 62.0063C4.10089 63.7205 4.10661 65.4405 4.07231 67.1547C4.06087 67.8105 4.30671 68.0579 4.93558 68.0521C6.66211 68.0406 8.39437 68.0406 10.1209 68.0694C10.6812 68.0752 10.8755 67.8393 10.8698 67.2986C10.8527 65.5095 10.8527 63.7205 10.8698 61.9315C10.8755 61.385 10.6411 61.2239 10.1438 61.2354C9.2462 61.2584 8.34291 61.2412 7.44534 61.2412L7.45106 61.2469ZM7.39961 80.0979C7.39961 80.0979 7.39961 80.1036 7.39961 80.1094C8.32004 80.1094 9.2462 80.0979 10.1666 80.1094C10.6354 80.1209 10.8641 79.9598 10.8584 79.4536C10.847 77.5956 10.847 75.7375 10.8584 73.8794C10.8584 73.4537 10.6812 73.2812 10.2638 73.2812C8.41723 73.2812 6.57064 73.2812 4.72405 73.2812C4.27812 73.2812 4.08374 73.4652 4.08374 73.9254C4.09518 75.7605 4.09518 77.6013 4.08374 79.4364C4.08374 79.9311 4.29527 80.1152 4.76978 80.1094C5.64448 80.0921 6.51919 80.1094 7.39961 80.1094V80.0979ZM20.2457 55.9086C20.2457 55.9086 20.2457 55.8913 20.2457 55.8856C21.1204 55.8856 22.0008 55.8568 22.8755 55.8971C23.453 55.9201 23.6816 55.7303 23.6702 55.1263C23.6359 53.4063 23.6359 51.6863 23.6531 49.972C23.6531 49.4255 23.453 49.2299 22.9156 49.1782C21.0918 49.0056 19.2738 49.1321 17.4501 49.1954C17.0328 49.2069 16.8613 49.3852 16.867 49.8109C16.8784 51.623 16.8841 53.4408 16.8727 55.2528C16.8727 55.7475 17.0556 55.9316 17.5473 55.9201C18.4449 55.8971 19.3482 55.9143 20.2457 55.9143V55.9086ZM4.09518 52.5491C4.09518 53.4523 4.10661 54.3612 4.09518 55.2643C4.08946 55.713 4.25525 55.9143 4.71833 55.9143C6.56492 55.8971 8.4058 55.8913 10.2524 55.9028C10.7155 55.9028 10.887 55.7073 10.887 55.2643C10.887 53.4523 10.887 51.646 10.8984 49.8339C10.8984 49.3795 10.6926 49.1782 10.2524 49.1954C8.41152 49.2472 6.57064 49.0228 4.72976 49.1897C4.28384 49.2299 4.10089 49.3852 4.10661 49.8397C4.12376 50.7428 4.10661 51.6517 4.10661 52.5549L4.09518 52.5491Z" fill="#15A1DB"/>
</g>
<defs>
<clipPath id="clip0_702_6877">
<rect width="72" height="86" fill="white" transform="translate(0.333374)"/>
</clipPath>
</defs>
</svg>
