<svg width="70" height="65" viewBox="0 0 70 65" fill="none" xmlns="http://www.w3.org/2000/svg">
<path d="M65.5067 1.22916C65.4545 0.541887 64.8928 0 64.2005 0H5.78661C5.10738 0 4.53265 0.52867 4.4804 1.22916L8.42276e-05 63.5726C-0.02604 63.9427 0.104581 64.2995 0.352762 64.5638C0.600943 64.8282 0.940558 64.9868 1.3063 64.9868H68.6939C69.0596 64.9868 69.3992 64.8282 69.6474 64.5638C69.8956 64.2995 70.0262 63.9294 70.0001 63.5726L65.5067 1.22916ZM5.12044 60.8499H3.81423V59.5283H5.12044V60.8499ZM7.74593 60.8499H6.43972V59.5283H7.74593V60.8499ZM10.3714 60.8499H9.06521V59.5283H10.3714V60.8499ZM12.9969 60.8499H11.6907V59.5283H12.9969V60.8499ZM15.6224 60.8499H14.3162V59.5283H15.6224V60.8499ZM18.2479 60.8499H16.9417V59.5283H18.2479V60.8499ZM20.8734 60.8499H19.5672V59.5283H20.8734V60.8499ZM23.4989 60.8499H22.1927V59.5283H23.4989V60.8499ZM26.1244 60.8499H24.8181V59.5283H26.1244V60.8499ZM28.7499 60.8499H27.4436V59.5283H28.7499V60.8499ZM31.3753 60.8499H30.0691V59.5283H31.3753V60.8499ZM34.0008 60.8499H32.6946V59.5283H34.0008V60.8499ZM36.6263 60.8499H35.3201V59.5283H36.6263V60.8499ZM39.2518 60.8499H37.9456V59.5283H39.2518V60.8499ZM41.8773 60.8499H40.5711V59.5283H41.8773V60.8499ZM44.5028 60.8499H43.1966V59.5283H44.5028V60.8499ZM47.1283 60.8499H45.8221V59.5283H47.1283V60.8499ZM49.7538 60.8499H48.4476V59.5283H49.7538V60.8499ZM52.3793 60.8499H51.073V59.5283H52.3793V60.8499ZM52.2356 13.5472V23.8562C52.1833 34.9054 44.4767 43.9061 35.0719 43.9061C25.6672 43.9061 17.9736 34.9187 17.9083 23.8695V13.5472C16.6021 13.0185 15.6747 11.7365 15.6747 10.2298C15.6747 8.26047 17.2552 6.64803 19.2145 6.64803C21.1738 6.64803 22.7543 8.24725 22.7543 10.2298C22.7543 11.7365 21.8269 13.0185 20.5207 13.5472V23.8562C20.573 33.4516 27.104 41.2627 35.0719 41.2627C43.0398 41.2627 49.584 33.4516 49.6231 23.8562V13.5472C48.3169 13.0185 47.3895 11.7365 47.3895 10.2298C47.3895 8.26047 48.97 6.64803 50.9294 6.64803C52.8887 6.64803 54.4692 8.24725 54.4692 10.2298C54.4692 11.7365 53.5418 13.0185 52.2486 13.5472H52.2356ZM54.9917 60.8499H53.6855V59.5283H54.9917V60.8499ZM57.6172 60.8499H56.311V59.5283H57.6172V60.8499ZM60.2427 60.8499H58.9365V59.5283H60.2427V60.8499ZM62.8682 60.8499H61.5619V59.5283H62.8682V60.8499ZM65.4936 60.8499H64.1874V59.5283H65.4936V60.8499Z" fill="#15A1DB"/>
</svg>
