<svg width="125" height="26" viewBox="0 0 125 26" fill="none" xmlns="http://www.w3.org/2000/svg">
<g clip-path="url(#clip0_293_4931)">
<path d="M32.5726 0.75769H33.7069L42.6664 23.8079L51.625 0.75769H52.7452L43.2331 25.2422H42.0988L32.5726 0.75769ZM43.3932 19.9198L42.7968 21.2797L34.8271 0.75769H35.9473L43.3939 19.9198H43.3932ZM44.5134 17.0068L43.9607 18.4704L37.0809 0.75769H38.2152L44.5126 17.0068H44.5134ZM45.6187 14.0496L45.0661 15.5432L39.3354 0.75769H40.4556L45.6187 14.0496ZM53.8647 0.75769H54.999L45.4728 25.2422H44.3526L53.8647 0.75769ZM56.1333 0.75769H57.2535L47.7273 25.2422H46.6071L56.134 0.75769H56.1333ZM58.3729 0.75769H59.5072L49.981 25.2422H48.8608L58.3737 0.75769H58.3729Z" fill="#15A1DB"/>
<path d="M61.4135 0.75769H62.4604V25.2422H61.4135V0.75769ZM63.508 0.75769H64.5548V25.2422H63.508V0.75769ZM65.6024 0.75769H66.6493V25.2422H65.6024V0.75769ZM67.6969 0.75769H68.7437V25.2422H67.6969V0.75769Z" fill="#15A1DB"/>
<path d="M82.0654 18.8551H80.8874L72.5541 2.78329V25.2422H71.5072V0.75769H72.6852L82.0662 18.8551H82.0654ZM73.6009 6.31683L74.6478 8.34243V25.2422H73.6009V6.31683ZM84.4362 18.8551H83.2434L73.8773 0.75769H75.0701L84.4362 18.8551ZM75.6954 10.368L76.7422 12.3786V25.2422H75.6954V10.3688V10.368ZM95.1264 2.78329L86.793 18.8551H85.6002L76.2481 0.75769H77.4261L86.2106 17.7311L94.9811 0.75769H96.174V25.2422H95.1271V2.78329H95.1264ZM77.7898 14.4192L78.8367 16.4298V25.2422H77.7898V14.42V14.4192ZM84.8 13.4876L84.1888 12.3636L90.2395 0.75769H91.4323L84.8 13.4883V13.4876ZM86.0069 15.8092L85.4105 14.7002L92.6244 0.75769H93.8024L86.0069 15.8092ZM88.843 16.3119L89.8898 14.3013V25.2422H88.843V16.3119ZM90.9374 12.2313L91.9843 10.2208V25.243H90.9374V12.2313ZM93.0319 8.20945L94.0788 6.18384V25.2422H93.0319V8.20945Z" fill="#15A1DB"/>
<path d="M99.199 25.2422H98.0639L107.591 0.75769H108.725L118.237 25.2422H117.117L108.158 2.19199L99.199 25.2422Z" fill="#15A1DB"/>
<path d="M108.289 4.72025L108.885 6.08092L101.439 25.2423H100.318L108.289 4.72025Z" fill="#15A1DB"/>
<path d="M109.452 7.52948L110.005 8.99308L103.707 25.2422H102.573L109.452 7.52948Z" fill="#15A1DB"/>
<path d="M110.557 10.4575L111.11 11.9504L105.947 25.2423H104.827L110.557 10.4575Z" fill="#15A1DB"/>
<path d="M110.965 0.75769L120.491 25.2422H119.357L109.845 0.75769H110.965Z" fill="#15A1DB"/>
<path d="M113.219 0.75769L122.746 25.2422H121.625L112.099 0.75769H113.219Z" fill="#15A1DB"/>
<path d="M125 25.2422H123.865L114.354 0.75769H115.474L125 25.2422Z" fill="#15A1DB"/>
<mask id="mask0_293_4931" style="mask-type:luminance" maskUnits="userSpaceOnUse" x="109" y="17" width="7" height="8">
<path d="M112.112 17.9558L109.139 24.6044L112.112 22.9522L115.059 24.6044L112.112 17.9558Z" fill="white"/>
</mask>
<g mask="url(#mask0_293_4931)">
<path d="M109.166 17.9558H109.139V24.6051H109.166V17.9558Z" fill="#15A1DB"/>
<path d="M109.192 17.9558H109.165V24.6051H109.192V17.9558Z" fill="#16A1DA"/>
<path d="M109.218 17.9558H109.191V24.6051H109.218V17.9558Z" fill="#17A1D9"/>
<path d="M109.244 17.9558H109.217V24.6051H109.244V17.9558Z" fill="#18A2D8"/>
<path d="M109.27 17.9558H109.243V24.6051H109.27V17.9558Z" fill="#19A2D7"/>
<path d="M109.296 17.9558H109.269V24.6051H109.296V17.9558Z" fill="#1AA2D6"/>
<path d="M109.322 17.9558H109.295V24.6051H109.322V17.9558Z" fill="#1BA2D5"/>
<path d="M109.348 17.9558H109.322V24.6051H109.348V17.9558Z" fill="#1CA3D5"/>
<path d="M109.374 17.9558H109.348V24.6051H109.374V17.9558Z" fill="#1DA3D4"/>
<path d="M109.4 17.9558H109.373V24.6051H109.4V17.9558Z" fill="#1EA3D3"/>
<path d="M109.426 17.9558H109.399V24.6051H109.426V17.9558Z" fill="#1FA3D2"/>
<path d="M109.452 17.9558H109.425V24.6051H109.452V17.9558Z" fill="#20A3D1"/>
<path d="M109.478 17.9558H109.451V24.6051H109.478V17.9558Z" fill="#21A4D0"/>
<path d="M109.504 17.9558H109.477V24.6051H109.504V17.9558Z" fill="#22A4CF"/>
<path d="M109.53 17.9558H109.503V24.6051H109.53V17.9558Z" fill="#23A4CE"/>
<path d="M109.556 17.9558H109.529V24.6051H109.556V17.9558Z" fill="#24A4CD"/>
<path d="M109.582 17.9558H109.555V24.6051H109.582V17.9558Z" fill="#25A4CC"/>
<path d="M109.608 17.9558H109.581V24.6051H109.608V17.9558Z" fill="#26A5CB"/>
<path d="M109.634 17.9558H109.607V24.6051H109.634V17.9558Z" fill="#27A5CA"/>
<path d="M109.659 17.9558H109.633V24.6051H109.659V17.9558Z" fill="#28A5CA"/>
<path d="M109.685 17.9558H109.659V24.6051H109.685V17.9558Z" fill="#29A5C9"/>
<path d="M109.711 17.9558H109.685V24.6051H109.711V17.9558Z" fill="#2AA6C8"/>
<path d="M109.737 17.9558H109.711V24.6051H109.737V17.9558Z" fill="#2BA6C7"/>
<path d="M109.763 17.9558H109.736V24.6051H109.763V17.9558Z" fill="#2CA6C6"/>
<path d="M109.789 17.9558H109.762V24.6051H109.789V17.9558Z" fill="#2DA6C5"/>
<path d="M109.815 17.9558H109.788V24.6051H109.815V17.9558Z" fill="#2EA6C4"/>
<path d="M109.841 17.9558H109.814V24.6051H109.841V17.9558Z" fill="#2FA7C3"/>
<path d="M109.867 17.9558H109.84V24.6051H109.867V17.9558Z" fill="#30A7C2"/>
<path d="M109.893 17.9558H109.866V24.6051H109.893V17.9558Z" fill="#31A7C1"/>
<path d="M109.919 17.9558H109.892V24.6051H109.919V17.9558Z" fill="#32A7C0"/>
<path d="M109.945 17.9558H109.919V24.6051H109.945V17.9558Z" fill="#33A7BF"/>
<path d="M109.971 17.9558H109.945V24.6051H109.971V17.9558Z" fill="#34A8BE"/>
<path d="M109.997 17.9558H109.971V24.6051H109.997V17.9558Z" fill="#35A8BE"/>
<path d="M110.023 17.9558H109.997V24.6051H110.023V17.9558Z" fill="#36A8BD"/>
<path d="M110.049 17.9558H110.022V24.6051H110.049V17.9558Z" fill="#37A8BC"/>
<path d="M110.075 17.9558H110.048V24.6051H110.075V17.9558Z" fill="#38A9BB"/>
<path d="M110.101 17.9558H110.074V24.6051H110.101V17.9558Z" fill="#39A9BA"/>
<path d="M110.127 17.9558H110.1V24.6051H110.127V17.9558Z" fill="#3AA9B9"/>
<path d="M110.153 17.9558H110.126V24.6051H110.153V17.9558Z" fill="#3BA9B8"/>
<path d="M110.179 17.9558H110.152V24.6051H110.179V17.9558Z" fill="#3CA9B7"/>
<path d="M110.205 17.9558H110.178V24.6051H110.205V17.9558Z" fill="#3DAAB6"/>
<path d="M110.231 17.9558H110.204V24.6051H110.231V17.9558Z" fill="#3EAAB5"/>
<path d="M110.257 17.9558H110.23V24.6051H110.257V17.9558Z" fill="#3FAAB4"/>
<path d="M110.283 17.9558H110.256V24.6051H110.283V17.9558Z" fill="#40AAB3"/>
<path d="M110.309 17.9558H110.282V24.6051H110.309V17.9558Z" fill="#41AAB2"/>
<path d="M110.334 17.9558H110.308V24.6051H110.334V17.9558Z" fill="#42ABB2"/>
<path d="M110.36 17.9558H110.334V24.6051H110.36V17.9558Z" fill="#43ABB1"/>
<path d="M110.386 17.9558H110.36V24.6051H110.386V17.9558Z" fill="#44ABB0"/>
<path d="M110.412 17.9558H110.385V24.6051H110.412V17.9558Z" fill="#45ABAF"/>
<path d="M110.438 17.9558H110.411V24.6051H110.438V17.9558Z" fill="#46ACAE"/>
<path d="M110.464 17.9558H110.437V24.6051H110.464V17.9558Z" fill="#47ACAD"/>
<path d="M110.49 17.9558H110.463V24.6051H110.49V17.9558Z" fill="#48ACAC"/>
<path d="M110.516 17.9558H110.489V24.6051H110.516V17.9558Z" fill="#49ACAB"/>
<path d="M110.543 17.9558H110.516V24.6051H110.543V17.9558Z" fill="#4AACAA"/>
<path d="M110.569 17.9558H110.542V24.6051H110.569V17.9558Z" fill="#4BADA9"/>
<path d="M110.594 17.9558H110.568V24.6051H110.594V17.9558Z" fill="#4CADA8"/>
<path d="M110.62 17.9558H110.594V24.6051H110.62V17.9558Z" fill="#4DADA7"/>
<path d="M110.646 17.9558H110.62V24.6051H110.646V17.9558Z" fill="#4EADA7"/>
<path d="M110.672 17.9558H110.646V24.6051H110.672V17.9558Z" fill="#4FAEA6"/>
<path d="M110.698 17.9558H110.671V24.6051H110.698V17.9558Z" fill="#50AEA5"/>
<path d="M110.724 17.9558H110.697V24.6051H110.724V17.9558Z" fill="#51AEA4"/>
<path d="M110.75 17.9558H110.723V24.6051H110.75V17.9558Z" fill="#52AEA3"/>
<path d="M110.776 17.9558H110.749V24.6051H110.776V17.9558Z" fill="#53AEA2"/>
<path d="M110.802 17.9558H110.775V24.6051H110.802V17.9558Z" fill="#54AFA1"/>
<path d="M110.828 17.9558H110.801V24.6051H110.828V17.9558Z" fill="#55AFA0"/>
<path d="M110.854 17.9558H110.827V24.6051H110.854V17.9558Z" fill="#56AF9F"/>
<path d="M110.88 17.9558H110.853V24.6051H110.88V17.9558Z" fill="#57AF9E"/>
<path d="M110.906 17.9558H110.879V24.6051H110.906V17.9558Z" fill="#58AF9D"/>
<path d="M110.932 17.9558H110.905V24.6051H110.932V17.9558Z" fill="#59B09C"/>
<path d="M110.958 17.9558H110.931V24.6051H110.958V17.9558Z" fill="#5AB09B"/>
<path d="M110.983 17.9558H110.957V24.6051H110.983V17.9558Z" fill="#5BB09B"/>
<path d="M111.009 17.9558H110.983V24.6051H111.009V17.9558Z" fill="#5CB09A"/>
<path d="M111.035 17.9558H111.009V24.6051H111.035V17.9558Z" fill="#5DB199"/>
<path d="M111.061 17.9558H111.034V24.6051H111.061V17.9558Z" fill="#5EB198"/>
<path d="M111.087 17.9558H111.06V24.6051H111.087V17.9558Z" fill="#5FB197"/>
<path d="M111.113 17.9558H111.086V24.6051H111.113V17.9558Z" fill="#60B196"/>
<path d="M111.14 17.9558H111.113V24.6051H111.14V17.9558Z" fill="#61B195"/>
<path d="M111.166 17.9558H111.139V24.6051H111.166V17.9558Z" fill="#62B294"/>
<path d="M111.192 17.9558H111.165V24.6051H111.192V17.9558Z" fill="#63B293"/>
<path d="M111.218 17.9558H111.191V24.6051H111.218V17.9558Z" fill="#64B292"/>
<path d="M111.243 17.9558H111.217V24.6051H111.243V17.9558Z" fill="#65B291"/>
<path d="M111.269 17.9558H111.243V24.6051H111.269V17.9558Z" fill="#66B290"/>
<path d="M111.295 17.9558H111.269V24.6051H111.295V17.9558Z" fill="#67B390"/>
<path d="M111.321 17.9558H111.295V24.6051H111.321V17.9558Z" fill="#68B38F"/>
<path d="M111.347 17.9558H111.32V24.6051H111.347V17.9558Z" fill="#69B38E"/>
<path d="M111.373 17.9558H111.346V24.6051H111.373V17.9558Z" fill="#6AB38D"/>
<path d="M111.399 17.9558H111.372V24.6051H111.399V17.9558Z" fill="#6BB48C"/>
<path d="M111.425 17.9558H111.398V24.6051H111.425V17.9558Z" fill="#6CB48B"/>
<path d="M111.451 17.9558H111.424V24.6051H111.451V17.9558Z" fill="#6DB48A"/>
<path d="M111.477 17.9558H111.45V24.6051H111.477V17.9558Z" fill="#6EB489"/>
<path d="M111.503 17.9558H111.476V24.6051H111.503V17.9558Z" fill="#6FB488"/>
<path d="M111.529 17.9558H111.502V24.6051H111.529V17.9558Z" fill="#70B587"/>
<path d="M111.555 17.9558H111.528V24.6051H111.555V17.9558Z" fill="#71B586"/>
<path d="M111.581 17.9558H111.554V24.6051H111.581V17.9558Z" fill="#72B585"/>
<path d="M111.607 17.9558H111.58V24.6051H111.607V17.9558Z" fill="#73B584"/>
<path d="M111.632 17.9558H111.606V24.6051H111.632V17.9558Z" fill="#74B684"/>
<path d="M111.658 17.9558H111.632V24.6051H111.658V17.9558Z" fill="#75B683"/>
<path d="M111.684 17.9558H111.658V24.6051H111.684V17.9558Z" fill="#76B682"/>
<path d="M111.71 17.9558H111.683V24.6051H111.71V17.9558Z" fill="#77B681"/>
<path d="M111.737 17.9558H111.71V24.6051H111.737V17.9558Z" fill="#78B680"/>
<path d="M111.763 17.9558H111.736V24.6051H111.763V17.9558Z" fill="#79B77F"/>
<path d="M111.789 17.9558H111.762V24.6051H111.789V17.9558Z" fill="#7AB77E"/>
<path d="M111.815 17.9558H111.788V24.6051H111.815V17.9558Z" fill="#7BB77D"/>
<path d="M111.841 17.9558H111.814V24.6051H111.841V17.9558Z" fill="#7CB77C"/>
<path d="M111.867 17.9558H111.84V24.6051H111.867V17.9558Z" fill="#7DB77B"/>
<path d="M111.892 17.9558H111.866V24.6051H111.892V17.9558Z" fill="#7EB87A"/>
<path d="M111.918 17.9558H111.892V24.6051H111.918V17.9558Z" fill="#7FB879"/>
<path d="M111.944 17.9558H111.918V24.6051H111.944V17.9558Z" fill="#80B878"/>
<path d="M111.97 17.9558H111.944V24.6051H111.97V17.9558Z" fill="#81B878"/>
<path d="M111.996 17.9558H111.969V24.6051H111.996V17.9558Z" fill="#82B977"/>
<path d="M112.022 17.9558H111.995V24.6051H112.022V17.9558Z" fill="#83B976"/>
<path d="M112.048 17.9558H112.021V24.6051H112.048V17.9558Z" fill="#84B975"/>
<path d="M112.074 17.9558H112.047V24.6051H112.074V17.9558Z" fill="#85B974"/>
<path d="M112.1 17.9558H112.073V24.6051H112.1V17.9558Z" fill="#86B973"/>
<path d="M112.126 17.9558H112.099V24.6051H112.126V17.9558Z" fill="#88BA72"/>
<path d="M112.152 17.9558H112.125V24.6051H112.152V17.9558Z" fill="#89BA71"/>
<path d="M112.178 17.9558H112.151V24.6051H112.178V17.9558Z" fill="#8ABA70"/>
<path d="M112.204 17.9558H112.177V24.6051H112.204V17.9558Z" fill="#8BBA6F"/>
<path d="M112.23 17.9558H112.203V24.6051H112.23V17.9558Z" fill="#8CBA6E"/>
<path d="M112.256 17.9558H112.229V24.6051H112.256V17.9558Z" fill="#8DBB6D"/>
<path d="M112.281 17.9558H112.255V24.6051H112.281V17.9558Z" fill="#8EBB6D"/>
<path d="M112.307 17.9558H112.281V24.6051H112.307V17.9558Z" fill="#8FBB6C"/>
<path d="M112.334 17.9558H112.307V24.6051H112.334V17.9558Z" fill="#90BB6B"/>
<path d="M112.36 17.9558H112.333V24.6051H112.36V17.9558Z" fill="#91BC6A"/>
<path d="M112.386 17.9558H112.359V24.6051H112.386V17.9558Z" fill="#92BC69"/>
<path d="M112.412 17.9558H112.385V24.6051H112.412V17.9558Z" fill="#93BC68"/>
<path d="M112.438 17.9558H112.411V24.6051H112.438V17.9558Z" fill="#94BC67"/>
<path d="M112.464 17.9558H112.437V24.6051H112.464V17.9558Z" fill="#95BC66"/>
<path d="M112.49 17.9558H112.463V24.6051H112.49V17.9558Z" fill="#96BD65"/>
<path d="M112.516 17.9558H112.489V24.6051H112.516V17.9558Z" fill="#97BD64"/>
<path d="M112.542 17.9558H112.515V24.6051H112.542V17.9558Z" fill="#98BD63"/>
<path d="M112.567 17.9558H112.541V24.6051H112.567V17.9558Z" fill="#99BD62"/>
<path d="M112.593 17.9558H112.567V24.6051H112.593V17.9558Z" fill="#9ABD61"/>
<path d="M112.619 17.9558H112.593V24.6051H112.619V17.9558Z" fill="#9BBE61"/>
<path d="M112.645 17.9558H112.618V24.6051H112.645V17.9558Z" fill="#9CBE60"/>
<path d="M112.671 17.9558H112.644V24.6051H112.671V17.9558Z" fill="#9DBE5F"/>
<path d="M112.697 17.9558H112.67V24.6051H112.697V17.9558Z" fill="#9EBE5E"/>
<path d="M112.723 17.9558H112.696V24.6051H112.723V17.9558Z" fill="#9FBF5D"/>
<path d="M112.749 17.9558H112.722V24.6051H112.749V17.9558Z" fill="#A0BF5C"/>
<path d="M112.775 17.9558H112.748V24.6051H112.775V17.9558Z" fill="#A1BF5B"/>
<path d="M112.801 17.9558H112.774V24.6051H112.801V17.9558Z" fill="#A2BF5A"/>
<path d="M112.827 17.9558H112.8V24.6051H112.827V17.9558Z" fill="#A3BF59"/>
<path d="M112.853 17.9558H112.826V24.6051H112.853V17.9558Z" fill="#A4C058"/>
<path d="M112.879 17.9558H112.852V24.6051H112.879V17.9558Z" fill="#A5C057"/>
<path d="M112.905 17.9558H112.878V24.6051H112.905V17.9558Z" fill="#A6C056"/>
<path d="M112.931 17.9558H112.904V24.6051H112.931V17.9558Z" fill="#A7C055"/>
<path d="M112.957 17.9558H112.93V24.6051H112.957V17.9558Z" fill="#A8C155"/>
<path d="M112.983 17.9558H112.956V24.6051H112.983V17.9558Z" fill="#A9C154"/>
<path d="M113.009 17.9558H112.982V24.6051H113.009V17.9558Z" fill="#AAC153"/>
<path d="M113.035 17.9558H113.008V24.6051H113.035V17.9558Z" fill="#ABC152"/>
<path d="M113.061 17.9558H113.034V24.6051H113.061V17.9558Z" fill="#ACC151"/>
<path d="M113.087 17.9558H113.06V24.6051H113.087V17.9558Z" fill="#ADC250"/>
<path d="M113.113 17.9558H113.086V24.6051H113.113V17.9558Z" fill="#AEC24F"/>
<path d="M113.139 17.9558H113.112V24.6051H113.139V17.9558Z" fill="#AFC24E"/>
<path d="M113.165 17.9558H113.138V24.6051H113.165V17.9558Z" fill="#B0C24D"/>
<path d="M113.191 17.9558H113.164V24.6051H113.191V17.9558Z" fill="#B1C24C"/>
<path d="M113.216 17.9558H113.19V24.6051H113.216V17.9558Z" fill="#B2C34B"/>
<path d="M113.242 17.9558H113.216V24.6051H113.242V17.9558Z" fill="#B3C34A"/>
<path d="M113.268 17.9558H113.242V24.6051H113.268V17.9558Z" fill="#B4C34A"/>
<path d="M113.294 17.9558H113.267V24.6051H113.294V17.9558Z" fill="#B5C349"/>
<path d="M113.32 17.9558H113.293V24.6051H113.32V17.9558Z" fill="#B6C448"/>
<path d="M113.346 17.9558H113.319V24.6051H113.346V17.9558Z" fill="#B7C447"/>
<path d="M113.372 17.9558H113.345V24.6051H113.372V17.9558Z" fill="#B8C446"/>
<path d="M113.398 17.9558H113.371V24.6051H113.398V17.9558Z" fill="#B9C445"/>
<path d="M113.424 17.9558H113.397V24.6051H113.424V17.9558Z" fill="#BAC444"/>
<path d="M113.45 17.9558H113.423V24.6051H113.45V17.9558Z" fill="#BBC543"/>
<path d="M113.476 17.9558H113.449V24.6051H113.476V17.9558Z" fill="#BCC542"/>
<path d="M113.502 17.9558H113.475V24.6051H113.502V17.9558Z" fill="#BDC541"/>
<path d="M113.528 17.9558H113.501V24.6051H113.528V17.9558Z" fill="#BEC540"/>
<path d="M113.554 17.9558H113.528V24.6051H113.554V17.9558Z" fill="#BFC53F"/>
<path d="M113.58 17.9558H113.553V24.6051H113.58V17.9558Z" fill="#C0C63E"/>
<path d="M113.606 17.9558H113.579V24.6051H113.606V17.9558Z" fill="#C1C63E"/>
<path d="M113.632 17.9558H113.605V24.6051H113.632V17.9558Z" fill="#C2C63D"/>
<path d="M113.658 17.9558H113.631V24.6051H113.658V17.9558Z" fill="#C3C63C"/>
<path d="M113.684 17.9558H113.657V24.6051H113.684V17.9558Z" fill="#C4C73B"/>
<path d="M113.71 17.9558H113.683V24.6051H113.71V17.9558Z" fill="#C5C73A"/>
<path d="M113.736 17.9558H113.709V24.6051H113.736V17.9558Z" fill="#C6C739"/>
<path d="M113.762 17.9558H113.735V24.6051H113.762V17.9558Z" fill="#C7C738"/>
<path d="M113.788 17.9558H113.761V24.6051H113.788V17.9558Z" fill="#C8C737"/>
<path d="M113.814 17.9558H113.787V24.6051H113.814V17.9558Z" fill="#C9C836"/>
<path d="M113.84 17.9558H113.813V24.6051H113.84V17.9558Z" fill="#CAC835"/>
<path d="M113.865 17.9558H113.839V24.6051H113.865V17.9558Z" fill="#CBC834"/>
<path d="M113.891 17.9558H113.865V24.6051H113.891V17.9558Z" fill="#CCC833"/>
<path d="M113.917 17.9558H113.891V24.6051H113.917V17.9558Z" fill="#CDC933"/>
<path d="M113.943 17.9558H113.916V24.6051H113.943V17.9558Z" fill="#CEC932"/>
<path d="M113.969 17.9558H113.942V24.6051H113.969V17.9558Z" fill="#CFC931"/>
<path d="M113.995 17.9558H113.968V24.6051H113.995V17.9558Z" fill="#D0C930"/>
<path d="M114.021 17.9558H113.994V24.6051H114.021V17.9558Z" fill="#D1C92F"/>
<path d="M114.047 17.9558H114.02V24.6051H114.047V17.9558Z" fill="#D2CA2E"/>
<path d="M114.073 17.9558H114.046V24.6051H114.073V17.9558Z" fill="#D3CA2D"/>
<path d="M114.099 17.9558H114.072V24.6051H114.099V17.9558Z" fill="#D4CA2C"/>
<path d="M114.125 17.9558H114.098V24.6051H114.125V17.9558Z" fill="#D5CA2B"/>
<path d="M114.151 17.9558H114.125V24.6051H114.151V17.9558Z" fill="#D6CA2A"/>
<path d="M114.177 17.9558H114.151V24.6051H114.177V17.9558Z" fill="#D7CB29"/>
<path d="M114.203 17.9558H114.177V24.6051H114.203V17.9558Z" fill="#D8CB28"/>
<path d="M114.229 17.9558H114.202V24.6051H114.229V17.9558Z" fill="#D9CB27"/>
<path d="M114.255 17.9558H114.228V24.6051H114.255V17.9558Z" fill="#DACB27"/>
<path d="M114.281 17.9558H114.254V24.6051H114.281V17.9558Z" fill="#DBCC26"/>
<path d="M114.307 17.9558H114.28V24.6051H114.307V17.9558Z" fill="#DCCC25"/>
<path d="M114.333 17.9558H114.306V24.6051H114.333V17.9558Z" fill="#DDCC24"/>
<path d="M114.359 17.9558H114.332V24.6051H114.359V17.9558Z" fill="#DECC23"/>
<path d="M114.385 17.9558H114.358V24.6051H114.385V17.9558Z" fill="#DFCC22"/>
<path d="M114.411 17.9558H114.384V24.6051H114.411V17.9558Z" fill="#E0CD21"/>
<path d="M114.437 17.9558H114.41V24.6051H114.437V17.9558Z" fill="#E1CD20"/>
<path d="M114.463 17.9558H114.436V24.6051H114.463V17.9558Z" fill="#E2CD1F"/>
<path d="M114.489 17.9558H114.462V24.6051H114.489V17.9558Z" fill="#E3CD1E"/>
<path d="M114.514 17.9558H114.488V24.6051H114.514V17.9558Z" fill="#E4CD1D"/>
<path d="M114.54 17.9558H114.514V24.6051H114.54V17.9558Z" fill="#E5CE1C"/>
<path d="M114.566 17.9558H114.54V24.6051H114.566V17.9558Z" fill="#E6CE1B"/>
<path d="M114.592 17.9558H114.565V24.6051H114.592V17.9558Z" fill="#E7CE1B"/>
<path d="M114.618 17.9558H114.591V24.6051H114.618V17.9558Z" fill="#E8CE1A"/>
<path d="M114.644 17.9558H114.617V24.6051H114.644V17.9558Z" fill="#E9CF19"/>
<path d="M114.67 17.9558H114.643V24.6051H114.67V17.9558Z" fill="#EACF18"/>
<path d="M114.696 17.9558H114.669V24.6051H114.696V17.9558Z" fill="#EBCF17"/>
<path d="M114.722 17.9558H114.695V24.6051H114.722V17.9558Z" fill="#ECCF16"/>
<path d="M114.749 17.9558H114.722V24.6051H114.749V17.9558Z" fill="#EDCF15"/>
<path d="M114.775 17.9558H114.748V24.6051H114.775V17.9558Z" fill="#EED014"/>
<path d="M114.8 17.9558H114.774V24.6051H114.8V17.9558Z" fill="#EFD013"/>
<path d="M114.826 17.9558H114.8V24.6051H114.826V17.9558Z" fill="#F0D012"/>
<path d="M114.852 17.9558H114.826V24.6051H114.852V17.9558Z" fill="#F1D011"/>
<path d="M114.878 17.9558H114.851V24.6051H114.878V17.9558Z" fill="#F2D010"/>
<path d="M114.904 17.9558H114.877V24.6051H114.904V17.9558Z" fill="#F3D110"/>
<path d="M114.93 17.9558H114.903V24.6051H114.93V17.9558Z" fill="#F4D10F"/>
<path d="M114.956 17.9558H114.929V24.6051H114.956V17.9558Z" fill="#F5D10E"/>
<path d="M114.982 17.9558H114.955V24.6051H114.982V17.9558Z" fill="#F6D10D"/>
<path d="M115.008 17.9558H114.981V24.6051H115.008V17.9558Z" fill="#F7D20C"/>
<path d="M115.034 17.9558H115.007V24.6051H115.034V17.9558Z" fill="#F8D20B"/>
<path d="M115.06 17.9558H115.033V24.6051H115.06V17.9558Z" fill="#F9D20A"/>
</g>
<mask id="mask1_293_4931" style="mask-type:luminance" maskUnits="userSpaceOnUse" x="112" y="17" width="4" height="8">
<path d="M112.111 17.955L115.058 24.6051L112.111 22.9522V17.955Z" fill="white"/>
</mask>
<g mask="url(#mask1_293_4931)">
<path d="M112.124 17.955H112.111V24.6051H112.124V17.955Z" fill="#15A1DB"/>
<path d="M112.137 17.955H112.124V24.6051H112.137V17.955Z" fill="#16A1DA"/>
<path d="M112.15 17.955H112.137V24.6051H112.15V17.955Z" fill="#17A1D9"/>
<path d="M112.163 17.955H112.15V24.6051H112.163V17.955Z" fill="#18A2D8"/>
<path d="M112.176 17.955H112.163V24.6051H112.176V17.955Z" fill="#19A2D7"/>
<path d="M112.189 17.955H112.176V24.6051H112.189V17.955Z" fill="#1AA2D6"/>
<path d="M112.202 17.955H112.189V24.6051H112.202V17.955Z" fill="#1BA2D5"/>
<path d="M112.214 17.955H112.201V24.6051H112.214V17.955Z" fill="#1CA3D5"/>
<path d="M112.228 17.955H112.215V24.6051H112.228V17.955Z" fill="#1DA3D4"/>
<path d="M112.24 17.955H112.227V24.6051H112.24V17.955Z" fill="#1EA3D3"/>
<path d="M112.254 17.955H112.241V24.6051H112.254V17.955Z" fill="#1FA3D2"/>
<path d="M112.266 17.955H112.253V24.6051H112.266V17.955Z" fill="#20A3D1"/>
<path d="M112.28 17.955H112.267V24.6051H112.28V17.955Z" fill="#21A4D0"/>
<path d="M112.292 17.955H112.279V24.6051H112.292V17.955Z" fill="#22A4CF"/>
<path d="M112.305 17.955H112.292V24.6051H112.305V17.955Z" fill="#23A4CE"/>
<path d="M112.318 17.955H112.305V24.6051H112.318V17.955Z" fill="#24A4CD"/>
<path d="M112.331 17.955H112.318V24.6051H112.331V17.955Z" fill="#25A4CC"/>
<path d="M112.344 17.955H112.331V24.6051H112.344V17.955Z" fill="#26A5CB"/>
<path d="M112.357 17.955H112.344V24.6051H112.357V17.955Z" fill="#27A5CA"/>
<path d="M112.37 17.955H112.357V24.6051H112.37V17.955Z" fill="#28A5CA"/>
<path d="M112.383 17.955H112.37V24.6051H112.383V17.955Z" fill="#29A5C9"/>
<path d="M112.396 17.955H112.383V24.6051H112.396V17.955Z" fill="#2AA6C8"/>
<path d="M112.408 17.955H112.395V24.6051H112.408V17.955Z" fill="#2BA6C7"/>
<path d="M112.422 17.955H112.409V24.6051H112.422V17.955Z" fill="#2CA6C6"/>
<path d="M112.434 17.955H112.421V24.6051H112.434V17.955Z" fill="#2DA6C5"/>
<path d="M112.448 17.955H112.435V24.6051H112.448V17.955Z" fill="#2EA6C4"/>
<path d="M112.46 17.955H112.447V24.6051H112.46V17.955Z" fill="#2FA7C3"/>
<path d="M112.473 17.955H112.46V24.6051H112.473V17.955Z" fill="#30A7C2"/>
<path d="M112.486 17.955H112.473V24.6051H112.486V17.955Z" fill="#31A7C1"/>
<path d="M112.499 17.955H112.486V24.6051H112.499V17.955Z" fill="#32A7C0"/>
<path d="M112.512 17.955H112.499V24.6051H112.512V17.955Z" fill="#33A7BF"/>
<path d="M112.525 17.955H112.512V24.6051H112.525V17.955Z" fill="#34A8BE"/>
<path d="M112.538 17.955H112.525V24.6051H112.538V17.955Z" fill="#35A8BE"/>
<path d="M112.551 17.955H112.538V24.6051H112.551V17.955Z" fill="#36A8BD"/>
<path d="M112.564 17.955H112.551V24.6051H112.564V17.955Z" fill="#37A8BC"/>
<path d="M112.577 17.955H112.564V24.6051H112.577V17.955Z" fill="#38A9BB"/>
<path d="M112.589 17.955H112.576V24.6051H112.589V17.955Z" fill="#39A9BA"/>
<path d="M112.603 17.955H112.59V24.6051H112.603V17.955Z" fill="#3AA9B9"/>
<path d="M112.615 17.955H112.602V24.6051H112.615V17.955Z" fill="#3BA9B8"/>
<path d="M112.628 17.955H112.615V24.6051H112.628V17.955Z" fill="#3CA9B7"/>
<path d="M112.641 17.955H112.628V24.6051H112.641V17.955Z" fill="#3DAAB6"/>
<path d="M112.654 17.955H112.641V24.6051H112.654V17.955Z" fill="#3EAAB5"/>
<path d="M112.667 17.955H112.654V24.6051H112.667V17.955Z" fill="#3FAAB4"/>
<path d="M112.68 17.955H112.667V24.6051H112.68V17.955Z" fill="#40AAB3"/>
<path d="M112.693 17.955H112.68V24.6051H112.693V17.955Z" fill="#41AAB2"/>
<path d="M112.706 17.955H112.693V24.6051H112.706V17.955Z" fill="#42ABB2"/>
<path d="M112.719 17.955H112.706V24.6051H112.719V17.955Z" fill="#43ABB1"/>
<path d="M112.731 17.955H112.718V24.6051H112.731V17.955Z" fill="#44ABB0"/>
<path d="M112.745 17.955H112.732V24.6051H112.745V17.955Z" fill="#45ABAF"/>
<path d="M112.757 17.955H112.744V24.6051H112.757V17.955Z" fill="#46ACAE"/>
<path d="M112.771 17.955H112.758V24.6051H112.771V17.955Z" fill="#47ACAD"/>
<path d="M112.783 17.955H112.77V24.6051H112.783V17.955Z" fill="#48ACAC"/>
<path d="M112.797 17.955H112.784V24.6051H112.797V17.955Z" fill="#49ACAB"/>
<path d="M112.809 17.955H112.796V24.6051H112.809V17.955Z" fill="#4AACAA"/>
<path d="M112.823 17.955H112.81V24.6051H112.823V17.955Z" fill="#4BADA9"/>
<path d="M112.835 17.955H112.822V24.6051H112.835V17.955Z" fill="#4CADA8"/>
<path d="M112.848 17.955H112.835V24.6051H112.848V17.955Z" fill="#4DADA7"/>
<path d="M112.861 17.955H112.848V24.6051H112.861V17.955Z" fill="#4EADA7"/>
<path d="M112.874 17.955H112.861V24.6051H112.874V17.955Z" fill="#4FAEA6"/>
<path d="M112.887 17.955H112.874V24.6051H112.887V17.955Z" fill="#50AEA5"/>
<path d="M112.9 17.955H112.887V24.6051H112.9V17.955Z" fill="#51AEA4"/>
<path d="M112.913 17.955H112.9V24.6051H112.913V17.955Z" fill="#52AEA3"/>
<path d="M112.926 17.955H112.913V24.6051H112.926V17.955Z" fill="#53AEA2"/>
<path d="M112.939 17.955H112.926V24.6051H112.939V17.955Z" fill="#54AFA1"/>
<path d="M112.952 17.955H112.939V24.6051H112.952V17.955Z" fill="#55AFA0"/>
<path d="M112.964 17.955H112.951V24.6051H112.964V17.955Z" fill="#56AF9F"/>
<path d="M112.977 17.955H112.964V24.6051H112.977V17.955Z" fill="#57AF9E"/>
<path d="M112.99 17.955H112.977V24.6051H112.99V17.955Z" fill="#58AF9D"/>
<path d="M113.003 17.955H112.99V24.6051H113.003V17.955Z" fill="#59B09C"/>
<path d="M113.016 17.955H113.003V24.6051H113.016V17.955Z" fill="#5AB09B"/>
<path d="M113.029 17.955H113.016V24.6051H113.029V17.955Z" fill="#5BB09B"/>
<path d="M113.042 17.955H113.029V24.6051H113.042V17.955Z" fill="#5CB09A"/>
<path d="M113.055 17.955H113.042V24.6051H113.055V17.955Z" fill="#5DB199"/>
<path d="M113.068 17.955H113.055V24.6051H113.068V17.955Z" fill="#5EB198"/>
<path d="M113.08 17.955H113.067V24.6051H113.08V17.955Z" fill="#5FB197"/>
<path d="M113.094 17.955H113.081V24.6051H113.094V17.955Z" fill="#60B196"/>
<path d="M113.106 17.955H113.093V24.6051H113.106V17.955Z" fill="#61B195"/>
<path d="M113.12 17.955H113.107V24.6051H113.12V17.955Z" fill="#62B294"/>
<path d="M113.132 17.955H113.119V24.6051H113.132V17.955Z" fill="#63B293"/>
<path d="M113.146 17.955H113.133V24.6051H113.146V17.955Z" fill="#64B292"/>
<path d="M113.158 17.955H113.145V24.6051H113.158V17.955Z" fill="#65B291"/>
<path d="M113.172 17.955H113.159V24.6051H113.172V17.955Z" fill="#66B290"/>
<path d="M113.184 17.955H113.171V24.6051H113.184V17.955Z" fill="#67B390"/>
<path d="M113.197 17.955H113.184V24.6051H113.197V17.955Z" fill="#68B38F"/>
<path d="M113.21 17.955H113.197V24.6051H113.21V17.955Z" fill="#69B38E"/>
<path d="M113.223 17.955H113.21V24.6051H113.223V17.955Z" fill="#6AB38D"/>
<path d="M113.236 17.955H113.223V24.6051H113.236V17.955Z" fill="#6BB48C"/>
<path d="M113.249 17.955H113.236V24.6051H113.249V17.955Z" fill="#6CB48B"/>
<path d="M113.262 17.955H113.249V24.6051H113.262V17.955Z" fill="#6DB48A"/>
<path d="M113.275 17.955H113.262V24.6051H113.275V17.955Z" fill="#6EB489"/>
<path d="M113.288 17.955H113.275V24.6051H113.288V17.955Z" fill="#6FB488"/>
<path d="M113.3 17.955H113.287V24.6051H113.3V17.955Z" fill="#70B587"/>
<path d="M113.314 17.955H113.301V24.6051H113.314V17.955Z" fill="#71B586"/>
<path d="M113.326 17.955H113.313V24.6051H113.326V17.955Z" fill="#72B585"/>
<path d="M113.339 17.955H113.326V24.6051H113.339V17.955Z" fill="#73B584"/>
<path d="M113.352 17.955H113.339V24.6051H113.352V17.955Z" fill="#74B684"/>
<path d="M113.365 17.955H113.352V24.6051H113.365V17.955Z" fill="#75B683"/>
<path d="M113.378 17.955H113.365V24.6051H113.378V17.955Z" fill="#76B682"/>
<path d="M113.391 17.955H113.378V24.6051H113.391V17.955Z" fill="#77B681"/>
<path d="M113.404 17.955H113.391V24.6051H113.404V17.955Z" fill="#78B680"/>
<path d="M113.417 17.955H113.404V24.6051H113.417V17.955Z" fill="#79B77F"/>
<path d="M113.43 17.955H113.417V24.6051H113.43V17.955Z" fill="#7AB77E"/>
<path d="M113.443 17.955H113.43V24.6051H113.443V17.955Z" fill="#7BB77D"/>
<path d="M113.455 17.955H113.442V24.6051H113.455V17.955Z" fill="#7CB77C"/>
<path d="M113.469 17.955H113.456V24.6051H113.469V17.955Z" fill="#7DB77B"/>
<path d="M113.481 17.955H113.468V24.6051H113.481V17.955Z" fill="#7EB87A"/>
<path d="M113.495 17.955H113.482V24.6051H113.495V17.955Z" fill="#7FB879"/>
<path d="M113.507 17.955H113.494V24.6051H113.507V17.955Z" fill="#80B878"/>
<path d="M113.521 17.955H113.508V24.6051H113.521V17.955Z" fill="#81B878"/>
<path d="M113.533 17.955H113.52V24.6051H113.533V17.955Z" fill="#82B977"/>
<path d="M113.546 17.955H113.533V24.6051H113.546V17.955Z" fill="#83B976"/>
<path d="M113.559 17.955H113.546V24.6051H113.559V17.955Z" fill="#84B975"/>
<path d="M113.572 17.955H113.559V24.6051H113.572V17.955Z" fill="#85B974"/>
<path d="M113.585 17.955H113.572V24.6051H113.585V17.955Z" fill="#86B973"/>
<path d="M113.598 17.955H113.585V24.6051H113.598V17.955Z" fill="#88BA72"/>
<path d="M113.611 17.955H113.598V24.6051H113.611V17.955Z" fill="#89BA71"/>
<path d="M113.623 17.955H113.61V24.6051H113.623V17.955Z" fill="#8ABA70"/>
<path d="M113.637 17.955H113.624V24.6051H113.637V17.955Z" fill="#8BBA6F"/>
<path d="M113.649 17.955H113.636V24.6051H113.649V17.955Z" fill="#8CBA6E"/>
<path d="M113.663 17.955H113.65V24.6051H113.663V17.955Z" fill="#8DBB6D"/>
<path d="M113.675 17.955H113.662V24.6051H113.675V17.955Z" fill="#8EBB6D"/>
<path d="M113.689 17.955H113.676V24.6051H113.689V17.955Z" fill="#8FBB6C"/>
<path d="M113.701 17.955H113.688V24.6051H113.701V17.955Z" fill="#90BB6B"/>
<path d="M113.714 17.955H113.701V24.6051H113.714V17.955Z" fill="#91BC6A"/>
<path d="M113.727 17.955H113.714V24.6051H113.727V17.955Z" fill="#92BC69"/>
<path d="M113.74 17.955H113.727V24.6051H113.74V17.955Z" fill="#93BC68"/>
<path d="M113.753 17.955H113.74V24.6051H113.753V17.955Z" fill="#94BC67"/>
<path d="M113.766 17.955H113.753V24.6051H113.766V17.955Z" fill="#95BC66"/>
<path d="M113.779 17.955H113.766V24.6051H113.779V17.955Z" fill="#96BD65"/>
<path d="M113.792 17.955H113.779V24.6051H113.792V17.955Z" fill="#97BD64"/>
<path d="M113.805 17.955H113.792V24.6051H113.805V17.955Z" fill="#98BD63"/>
<path d="M113.818 17.955H113.805V24.6051H113.818V17.955Z" fill="#99BD62"/>
<path d="M113.83 17.955H113.817V24.6051H113.83V17.955Z" fill="#9ABD61"/>
<path d="M113.844 17.955H113.831V24.6051H113.844V17.955Z" fill="#9BBE61"/>
<path d="M113.856 17.955H113.843V24.6051H113.856V17.955Z" fill="#9CBE60"/>
<path d="M113.869 17.955H113.856V24.6051H113.869V17.955Z" fill="#9DBE5F"/>
<path d="M113.882 17.955H113.869V24.6051H113.882V17.955Z" fill="#9EBE5E"/>
<path d="M113.895 17.955H113.882V24.6051H113.895V17.955Z" fill="#9FBF5D"/>
<path d="M113.908 17.955H113.895V24.6051H113.908V17.955Z" fill="#A0BF5C"/>
<path d="M113.921 17.955H113.908V24.6051H113.921V17.955Z" fill="#A1BF5B"/>
<path d="M113.934 17.955H113.921V24.6051H113.934V17.955Z" fill="#A2BF5A"/>
<path d="M113.947 17.955H113.934V24.6051H113.947V17.955Z" fill="#A3BF59"/>
<path d="M113.96 17.955H113.947V24.6051H113.96V17.955Z" fill="#A4C058"/>
<path d="M113.972 17.955H113.959V24.6051H113.972V17.955Z" fill="#A5C057"/>
<path d="M113.986 17.955H113.973V24.6051H113.986V17.955Z" fill="#A6C056"/>
<path d="M113.998 17.955H113.985V24.6051H113.998V17.955Z" fill="#A7C055"/>
<path d="M114.012 17.955H113.999V24.6051H114.012V17.955Z" fill="#A8C155"/>
<path d="M114.024 17.955H114.011V24.6051H114.024V17.955Z" fill="#A9C154"/>
<path d="M114.038 17.955H114.025V24.6051H114.038V17.955Z" fill="#AAC153"/>
<path d="M114.05 17.955H114.037V24.6051H114.05V17.955Z" fill="#ABC152"/>
<path d="M114.064 17.955H114.051V24.6051H114.064V17.955Z" fill="#ACC151"/>
<path d="M114.076 17.955H114.063V24.6051H114.076V17.955Z" fill="#ADC250"/>
<path d="M114.089 17.955H114.076V24.6051H114.089V17.955Z" fill="#AEC24F"/>
<path d="M114.102 17.955H114.089V24.6051H114.102V17.955Z" fill="#AFC24E"/>
<path d="M114.115 17.955H114.102V24.6051H114.115V17.955Z" fill="#B0C24D"/>
<path d="M114.128 17.955H114.115V24.6051H114.128V17.955Z" fill="#B1C24C"/>
<path d="M114.141 17.955H114.128V24.6051H114.141V17.955Z" fill="#B2C34B"/>
<path d="M114.154 17.955H114.141V24.6051H114.154V17.955Z" fill="#B3C34A"/>
<path d="M114.167 17.955H114.154V24.6051H114.167V17.955Z" fill="#B4C34A"/>
<path d="M114.18 17.955H114.167V24.6051H114.18V17.955Z" fill="#B5C349"/>
<path d="M114.192 17.955H114.179V24.6051H114.192V17.955Z" fill="#B6C448"/>
<path d="M114.205 17.955H114.192V24.6051H114.205V17.955Z" fill="#B7C447"/>
<path d="M114.218 17.955H114.205V24.6051H114.218V17.955Z" fill="#B8C446"/>
<path d="M114.231 17.955H114.218V24.6051H114.231V17.955Z" fill="#B9C445"/>
<path d="M114.244 17.955H114.231V24.6051H114.244V17.955Z" fill="#BAC444"/>
<path d="M114.257 17.955H114.244V24.6051H114.257V17.955Z" fill="#BBC543"/>
<path d="M114.27 17.955H114.257V24.6051H114.27V17.955Z" fill="#BCC542"/>
<path d="M114.283 17.955H114.27V24.6051H114.283V17.955Z" fill="#BDC541"/>
<path d="M114.296 17.955H114.283V24.6051H114.296V17.955Z" fill="#BEC540"/>
<path d="M114.309 17.955H114.296V24.6051H114.309V17.955Z" fill="#BFC53F"/>
<path d="M114.321 17.955H114.308V24.6051H114.321V17.955Z" fill="#C0C63E"/>
<path d="M114.335 17.955H114.322V24.6051H114.335V17.955Z" fill="#C1C63E"/>
<path d="M114.347 17.955H114.334V24.6051H114.347V17.955Z" fill="#C2C63D"/>
<path d="M114.361 17.955H114.348V24.6051H114.361V17.955Z" fill="#C3C63C"/>
<path d="M114.373 17.955H114.36V24.6051H114.373V17.955Z" fill="#C4C73B"/>
<path d="M114.387 17.955H114.374V24.6051H114.387V17.955Z" fill="#C5C73A"/>
<path d="M114.399 17.955H114.386V24.6051H114.399V17.955Z" fill="#C6C739"/>
<path d="M114.413 17.955H114.4V24.6051H114.413V17.955Z" fill="#C7C738"/>
<path d="M114.425 17.955H114.412V24.6051H114.425V17.955Z" fill="#C8C737"/>
<path d="M114.438 17.955H114.425V24.6051H114.438V17.955Z" fill="#C9C836"/>
<path d="M114.451 17.955H114.438V24.6051H114.451V17.955Z" fill="#CAC835"/>
<path d="M114.464 17.955H114.451V24.6051H114.464V17.955Z" fill="#CBC834"/>
<path d="M114.477 17.955H114.464V24.6051H114.477V17.955Z" fill="#CCC833"/>
<path d="M114.49 17.955H114.477V24.6051H114.49V17.955Z" fill="#CDC933"/>
<path d="M114.503 17.955H114.49V24.6051H114.503V17.955Z" fill="#CEC932"/>
<path d="M114.516 17.955H114.503V24.6051H114.516V17.955Z" fill="#CFC931"/>
<path d="M114.529 17.955H114.516V24.6051H114.529V17.955Z" fill="#D0C930"/>
<path d="M114.541 17.955H114.528V24.6051H114.541V17.955Z" fill="#D1C92F"/>
<path d="M114.555 17.955H114.542V24.6051H114.555V17.955Z" fill="#D2CA2E"/>
<path d="M114.567 17.955H114.554V24.6051H114.567V17.955Z" fill="#D3CA2D"/>
<path d="M114.58 17.955H114.567V24.6051H114.58V17.955Z" fill="#D4CA2C"/>
<path d="M114.593 17.955H114.58V24.6051H114.593V17.955Z" fill="#D5CA2B"/>
<path d="M114.606 17.955H114.593V24.6051H114.606V17.955Z" fill="#D6CA2A"/>
<path d="M114.619 17.955H114.606V24.6051H114.619V17.955Z" fill="#D7CB29"/>
<path d="M114.632 17.955H114.619V24.6051H114.632V17.955Z" fill="#D8CB28"/>
<path d="M114.645 17.955H114.632V24.6051H114.645V17.955Z" fill="#D9CB27"/>
<path d="M114.658 17.955H114.645V24.6051H114.658V17.955Z" fill="#DACB27"/>
<path d="M114.671 17.955H114.658V24.6051H114.671V17.955Z" fill="#DBCC26"/>
<path d="M114.684 17.955H114.671V24.6051H114.684V17.955Z" fill="#DCCC25"/>
<path d="M114.696 17.955H114.683V24.6051H114.696V17.955Z" fill="#DDCC24"/>
<path d="M114.71 17.955H114.697V24.6051H114.71V17.955Z" fill="#DECC23"/>
<path d="M114.722 17.955H114.709V24.6051H114.722V17.955Z" fill="#DFCC22"/>
<path d="M114.736 17.955H114.723V24.6051H114.736V17.955Z" fill="#E0CD21"/>
<path d="M114.748 17.955H114.735V24.6051H114.748V17.955Z" fill="#E1CD20"/>
<path d="M114.761 17.955H114.748V24.6051H114.761V17.955Z" fill="#E2CD1F"/>
<path d="M114.774 17.955H114.761V24.6051H114.774V17.955Z" fill="#E3CD1E"/>
<path d="M114.787 17.955H114.774V24.6051H114.787V17.955Z" fill="#E4CD1D"/>
<path d="M114.8 17.955H114.787V24.6051H114.8V17.955Z" fill="#E5CE1C"/>
<path d="M114.813 17.955H114.8V24.6051H114.813V17.955Z" fill="#E6CE1B"/>
<path d="M114.826 17.955H114.813V24.6051H114.826V17.955Z" fill="#E7CE1B"/>
<path d="M114.839 17.955H114.826V24.6051H114.839V17.955Z" fill="#E8CE1A"/>
<path d="M114.852 17.955H114.839V24.6051H114.852V17.955Z" fill="#E9CF19"/>
<path d="M114.864 17.955H114.851V24.6051H114.864V17.955Z" fill="#EACF18"/>
<path d="M114.878 17.955H114.865V24.6051H114.878V17.955Z" fill="#EBCF17"/>
<path d="M114.89 17.955H114.877V24.6051H114.89V17.955Z" fill="#ECCF16"/>
<path d="M114.904 17.955H114.891V24.6051H114.904V17.955Z" fill="#EDCF15"/>
<path d="M114.916 17.955H114.903V24.6051H114.916V17.955Z" fill="#EED014"/>
<path d="M114.93 17.955H114.917V24.6051H114.93V17.955Z" fill="#EFD013"/>
<path d="M114.942 17.955H114.929V24.6051H114.942V17.955Z" fill="#F0D012"/>
<path d="M114.955 17.955H114.942V24.6051H114.955V17.955Z" fill="#F1D011"/>
<path d="M114.968 17.955H114.955V24.6051H114.968V17.955Z" fill="#F2D010"/>
<path d="M114.981 17.955H114.968V24.6051H114.981V17.955Z" fill="#F3D110"/>
<path d="M114.994 17.955H114.981V24.6051H114.994V17.955Z" fill="#F4D10F"/>
<path d="M115.007 17.955H114.994V24.6051H115.007V17.955Z" fill="#F5D10E"/>
<path d="M115.02 17.955H115.007V24.6051H115.02V17.955Z" fill="#F6D10D"/>
<path d="M115.033 17.955H115.02V24.6051H115.033V17.955Z" fill="#F7D20C"/>
<path d="M115.046 17.955H115.033V24.6051H115.046V17.955Z" fill="#F8D20B"/>
<path d="M115.059 17.955H115.046V24.6051H115.059V17.955Z" fill="#F9D20A"/>
</g>
<mask id="mask2_293_4931" style="mask-type:luminance" maskUnits="userSpaceOnUse" x="112" y="17" width="4" height="8">
<path d="M112.111 17.955L115.058 24.6051L112.111 22.9522V17.955Z" fill="white"/>
</mask>
<g mask="url(#mask2_293_4931)">
<path d="M112.124 17.955H112.111V24.6051H112.124V17.955Z" fill="#15A1DB"/>
<path d="M112.137 17.955H112.124V24.6051H112.137V17.955Z" fill="#16A1DA"/>
<path d="M112.15 17.955H112.137V24.6051H112.15V17.955Z" fill="#17A1D9"/>
<path d="M112.163 17.955H112.15V24.6051H112.163V17.955Z" fill="#18A2D8"/>
<path d="M112.176 17.955H112.163V24.6051H112.176V17.955Z" fill="#19A2D7"/>
<path d="M112.189 17.955H112.176V24.6051H112.189V17.955Z" fill="#1AA2D6"/>
<path d="M112.202 17.955H112.189V24.6051H112.202V17.955Z" fill="#1BA2D5"/>
<path d="M112.214 17.955H112.201V24.6051H112.214V17.955Z" fill="#1CA3D5"/>
<path d="M112.228 17.955H112.215V24.6051H112.228V17.955Z" fill="#1DA3D4"/>
<path d="M112.24 17.955H112.227V24.6051H112.24V17.955Z" fill="#1EA3D3"/>
<path d="M112.254 17.955H112.241V24.6051H112.254V17.955Z" fill="#1FA3D2"/>
<path d="M112.266 17.955H112.253V24.6051H112.266V17.955Z" fill="#20A3D1"/>
<path d="M112.28 17.955H112.267V24.6051H112.28V17.955Z" fill="#21A4D0"/>
<path d="M112.292 17.955H112.279V24.6051H112.292V17.955Z" fill="#22A4CF"/>
<path d="M112.305 17.955H112.292V24.6051H112.305V17.955Z" fill="#23A4CE"/>
<path d="M112.318 17.955H112.305V24.6051H112.318V17.955Z" fill="#24A4CD"/>
<path d="M112.331 17.955H112.318V24.6051H112.331V17.955Z" fill="#25A4CC"/>
<path d="M112.344 17.955H112.331V24.6051H112.344V17.955Z" fill="#26A5CB"/>
<path d="M112.357 17.955H112.344V24.6051H112.357V17.955Z" fill="#27A5CA"/>
<path d="M112.37 17.955H112.357V24.6051H112.37V17.955Z" fill="#28A5CA"/>
<path d="M112.383 17.955H112.37V24.6051H112.383V17.955Z" fill="#29A5C9"/>
<path d="M112.396 17.955H112.383V24.6051H112.396V17.955Z" fill="#2AA6C8"/>
<path d="M112.408 17.955H112.395V24.6051H112.408V17.955Z" fill="#2BA6C7"/>
<path d="M112.422 17.955H112.409V24.6051H112.422V17.955Z" fill="#2CA6C6"/>
<path d="M112.434 17.955H112.421V24.6051H112.434V17.955Z" fill="#2DA6C5"/>
<path d="M112.448 17.955H112.435V24.6051H112.448V17.955Z" fill="#2EA6C4"/>
<path d="M112.46 17.955H112.447V24.6051H112.46V17.955Z" fill="#2FA7C3"/>
<path d="M112.473 17.955H112.46V24.6051H112.473V17.955Z" fill="#30A7C2"/>
<path d="M112.486 17.955H112.473V24.6051H112.486V17.955Z" fill="#31A7C1"/>
<path d="M112.499 17.955H112.486V24.6051H112.499V17.955Z" fill="#32A7C0"/>
<path d="M112.512 17.955H112.499V24.6051H112.512V17.955Z" fill="#33A7BF"/>
<path d="M112.525 17.955H112.512V24.6051H112.525V17.955Z" fill="#34A8BE"/>
<path d="M112.538 17.955H112.525V24.6051H112.538V17.955Z" fill="#35A8BE"/>
<path d="M112.551 17.955H112.538V24.6051H112.551V17.955Z" fill="#36A8BD"/>
<path d="M112.564 17.955H112.551V24.6051H112.564V17.955Z" fill="#37A8BC"/>
<path d="M112.577 17.955H112.564V24.6051H112.577V17.955Z" fill="#38A9BB"/>
<path d="M112.589 17.955H112.576V24.6051H112.589V17.955Z" fill="#39A9BA"/>
<path d="M112.603 17.955H112.59V24.6051H112.603V17.955Z" fill="#3AA9B9"/>
<path d="M112.615 17.955H112.602V24.6051H112.615V17.955Z" fill="#3BA9B8"/>
<path d="M112.628 17.955H112.615V24.6051H112.628V17.955Z" fill="#3CA9B7"/>
<path d="M112.641 17.955H112.628V24.6051H112.641V17.955Z" fill="#3DAAB6"/>
<path d="M112.654 17.955H112.641V24.6051H112.654V17.955Z" fill="#3EAAB5"/>
<path d="M112.667 17.955H112.654V24.6051H112.667V17.955Z" fill="#3FAAB4"/>
<path d="M112.68 17.955H112.667V24.6051H112.68V17.955Z" fill="#40AAB3"/>
<path d="M112.693 17.955H112.68V24.6051H112.693V17.955Z" fill="#41AAB2"/>
<path d="M112.706 17.955H112.693V24.6051H112.706V17.955Z" fill="#42ABB2"/>
<path d="M112.719 17.955H112.706V24.6051H112.719V17.955Z" fill="#43ABB1"/>
<path d="M112.731 17.955H112.718V24.6051H112.731V17.955Z" fill="#44ABB0"/>
<path d="M112.745 17.955H112.732V24.6051H112.745V17.955Z" fill="#45ABAF"/>
<path d="M112.757 17.955H112.744V24.6051H112.757V17.955Z" fill="#46ACAE"/>
<path d="M112.771 17.955H112.758V24.6051H112.771V17.955Z" fill="#47ACAD"/>
<path d="M112.783 17.955H112.77V24.6051H112.783V17.955Z" fill="#48ACAC"/>
<path d="M112.797 17.955H112.784V24.6051H112.797V17.955Z" fill="#49ACAB"/>
<path d="M112.809 17.955H112.796V24.6051H112.809V17.955Z" fill="#4AACAA"/>
<path d="M112.823 17.955H112.81V24.6051H112.823V17.955Z" fill="#4BADA9"/>
<path d="M112.835 17.955H112.822V24.6051H112.835V17.955Z" fill="#4CADA8"/>
<path d="M112.848 17.955H112.835V24.6051H112.848V17.955Z" fill="#4DADA7"/>
<path d="M112.861 17.955H112.848V24.6051H112.861V17.955Z" fill="#4EADA7"/>
<path d="M112.874 17.955H112.861V24.6051H112.874V17.955Z" fill="#4FAEA6"/>
<path d="M112.887 17.955H112.874V24.6051H112.887V17.955Z" fill="#50AEA5"/>
<path d="M112.9 17.955H112.887V24.6051H112.9V17.955Z" fill="#51AEA4"/>
<path d="M112.913 17.955H112.9V24.6051H112.913V17.955Z" fill="#52AEA3"/>
<path d="M112.926 17.955H112.913V24.6051H112.926V17.955Z" fill="#53AEA2"/>
<path d="M112.939 17.955H112.926V24.6051H112.939V17.955Z" fill="#54AFA1"/>
<path d="M112.952 17.955H112.939V24.6051H112.952V17.955Z" fill="#55AFA0"/>
<path d="M112.964 17.955H112.951V24.6051H112.964V17.955Z" fill="#56AF9F"/>
<path d="M112.977 17.955H112.964V24.6051H112.977V17.955Z" fill="#57AF9E"/>
<path d="M112.99 17.955H112.977V24.6051H112.99V17.955Z" fill="#58AF9D"/>
<path d="M113.003 17.955H112.99V24.6051H113.003V17.955Z" fill="#59B09C"/>
<path d="M113.016 17.955H113.003V24.6051H113.016V17.955Z" fill="#5AB09B"/>
<path d="M113.029 17.955H113.016V24.6051H113.029V17.955Z" fill="#5BB09B"/>
<path d="M113.042 17.955H113.029V24.6051H113.042V17.955Z" fill="#5CB09A"/>
<path d="M113.055 17.955H113.042V24.6051H113.055V17.955Z" fill="#5DB199"/>
<path d="M113.068 17.955H113.055V24.6051H113.068V17.955Z" fill="#5EB198"/>
<path d="M113.08 17.955H113.067V24.6051H113.08V17.955Z" fill="#5FB197"/>
<path d="M113.094 17.955H113.081V24.6051H113.094V17.955Z" fill="#60B196"/>
<path d="M113.106 17.955H113.093V24.6051H113.106V17.955Z" fill="#61B195"/>
<path d="M113.12 17.955H113.107V24.6051H113.12V17.955Z" fill="#62B294"/>
<path d="M113.132 17.955H113.119V24.6051H113.132V17.955Z" fill="#63B293"/>
<path d="M113.146 17.955H113.133V24.6051H113.146V17.955Z" fill="#64B292"/>
<path d="M113.158 17.955H113.145V24.6051H113.158V17.955Z" fill="#65B291"/>
<path d="M113.172 17.955H113.159V24.6051H113.172V17.955Z" fill="#66B290"/>
<path d="M113.184 17.955H113.171V24.6051H113.184V17.955Z" fill="#67B390"/>
<path d="M113.197 17.955H113.184V24.6051H113.197V17.955Z" fill="#68B38F"/>
<path d="M113.21 17.955H113.197V24.6051H113.21V17.955Z" fill="#69B38E"/>
<path d="M113.223 17.955H113.21V24.6051H113.223V17.955Z" fill="#6AB38D"/>
<path d="M113.236 17.955H113.223V24.6051H113.236V17.955Z" fill="#6BB48C"/>
<path d="M113.249 17.955H113.236V24.6051H113.249V17.955Z" fill="#6CB48B"/>
<path d="M113.262 17.955H113.249V24.6051H113.262V17.955Z" fill="#6DB48A"/>
<path d="M113.275 17.955H113.262V24.6051H113.275V17.955Z" fill="#6EB489"/>
<path d="M113.288 17.955H113.275V24.6051H113.288V17.955Z" fill="#6FB488"/>
<path d="M113.3 17.955H113.287V24.6051H113.3V17.955Z" fill="#70B587"/>
<path d="M113.314 17.955H113.301V24.6051H113.314V17.955Z" fill="#71B586"/>
<path d="M113.326 17.955H113.313V24.6051H113.326V17.955Z" fill="#72B585"/>
<path d="M113.339 17.955H113.326V24.6051H113.339V17.955Z" fill="#73B584"/>
<path d="M113.352 17.955H113.339V24.6051H113.352V17.955Z" fill="#74B684"/>
<path d="M113.365 17.955H113.352V24.6051H113.365V17.955Z" fill="#75B683"/>
<path d="M113.378 17.955H113.365V24.6051H113.378V17.955Z" fill="#76B682"/>
<path d="M113.391 17.955H113.378V24.6051H113.391V17.955Z" fill="#77B681"/>
<path d="M113.404 17.955H113.391V24.6051H113.404V17.955Z" fill="#78B680"/>
<path d="M113.417 17.955H113.404V24.6051H113.417V17.955Z" fill="#79B77F"/>
<path d="M113.43 17.955H113.417V24.6051H113.43V17.955Z" fill="#7AB77E"/>
<path d="M113.443 17.955H113.43V24.6051H113.443V17.955Z" fill="#7BB77D"/>
<path d="M113.455 17.955H113.442V24.6051H113.455V17.955Z" fill="#7CB77C"/>
<path d="M113.469 17.955H113.456V24.6051H113.469V17.955Z" fill="#7DB77B"/>
<path d="M113.481 17.955H113.468V24.6051H113.481V17.955Z" fill="#7EB87A"/>
<path d="M113.495 17.955H113.482V24.6051H113.495V17.955Z" fill="#7FB879"/>
<path d="M113.507 17.955H113.494V24.6051H113.507V17.955Z" fill="#80B878"/>
<path d="M113.521 17.955H113.508V24.6051H113.521V17.955Z" fill="#81B878"/>
<path d="M113.533 17.955H113.52V24.6051H113.533V17.955Z" fill="#82B977"/>
<path d="M113.546 17.955H113.533V24.6051H113.546V17.955Z" fill="#83B976"/>
<path d="M113.559 17.955H113.546V24.6051H113.559V17.955Z" fill="#84B975"/>
<path d="M113.572 17.955H113.559V24.6051H113.572V17.955Z" fill="#85B974"/>
<path d="M113.585 17.955H113.572V24.6051H113.585V17.955Z" fill="#86B973"/>
<path d="M113.598 17.955H113.585V24.6051H113.598V17.955Z" fill="#88BA72"/>
<path d="M113.611 17.955H113.598V24.6051H113.611V17.955Z" fill="#89BA71"/>
<path d="M113.623 17.955H113.61V24.6051H113.623V17.955Z" fill="#8ABA70"/>
<path d="M113.637 17.955H113.624V24.6051H113.637V17.955Z" fill="#8BBA6F"/>
<path d="M113.649 17.955H113.636V24.6051H113.649V17.955Z" fill="#8CBA6E"/>
<path d="M113.663 17.955H113.65V24.6051H113.663V17.955Z" fill="#8DBB6D"/>
<path d="M113.675 17.955H113.662V24.6051H113.675V17.955Z" fill="#8EBB6D"/>
<path d="M113.689 17.955H113.676V24.6051H113.689V17.955Z" fill="#8FBB6C"/>
<path d="M113.701 17.955H113.688V24.6051H113.701V17.955Z" fill="#90BB6B"/>
<path d="M113.714 17.955H113.701V24.6051H113.714V17.955Z" fill="#91BC6A"/>
<path d="M113.727 17.955H113.714V24.6051H113.727V17.955Z" fill="#92BC69"/>
<path d="M113.74 17.955H113.727V24.6051H113.74V17.955Z" fill="#93BC68"/>
<path d="M113.753 17.955H113.74V24.6051H113.753V17.955Z" fill="#94BC67"/>
<path d="M113.766 17.955H113.753V24.6051H113.766V17.955Z" fill="#95BC66"/>
<path d="M113.779 17.955H113.766V24.6051H113.779V17.955Z" fill="#96BD65"/>
<path d="M113.792 17.955H113.779V24.6051H113.792V17.955Z" fill="#97BD64"/>
<path d="M113.805 17.955H113.792V24.6051H113.805V17.955Z" fill="#98BD63"/>
<path d="M113.818 17.955H113.805V24.6051H113.818V17.955Z" fill="#99BD62"/>
<path d="M113.83 17.955H113.817V24.6051H113.83V17.955Z" fill="#9ABD61"/>
<path d="M113.844 17.955H113.831V24.6051H113.844V17.955Z" fill="#9BBE61"/>
<path d="M113.856 17.955H113.843V24.6051H113.856V17.955Z" fill="#9CBE60"/>
<path d="M113.869 17.955H113.856V24.6051H113.869V17.955Z" fill="#9DBE5F"/>
<path d="M113.882 17.955H113.869V24.6051H113.882V17.955Z" fill="#9EBE5E"/>
<path d="M113.895 17.955H113.882V24.6051H113.895V17.955Z" fill="#9FBF5D"/>
<path d="M113.908 17.955H113.895V24.6051H113.908V17.955Z" fill="#A0BF5C"/>
<path d="M113.921 17.955H113.908V24.6051H113.921V17.955Z" fill="#A1BF5B"/>
<path d="M113.934 17.955H113.921V24.6051H113.934V17.955Z" fill="#A2BF5A"/>
<path d="M113.947 17.955H113.934V24.6051H113.947V17.955Z" fill="#A3BF59"/>
<path d="M113.96 17.955H113.947V24.6051H113.96V17.955Z" fill="#A4C058"/>
<path d="M113.972 17.955H113.959V24.6051H113.972V17.955Z" fill="#A5C057"/>
<path d="M113.986 17.955H113.973V24.6051H113.986V17.955Z" fill="#A6C056"/>
<path d="M113.998 17.955H113.985V24.6051H113.998V17.955Z" fill="#A7C055"/>
<path d="M114.012 17.955H113.999V24.6051H114.012V17.955Z" fill="#A8C155"/>
<path d="M114.024 17.955H114.011V24.6051H114.024V17.955Z" fill="#A9C154"/>
<path d="M114.038 17.955H114.025V24.6051H114.038V17.955Z" fill="#AAC153"/>
<path d="M114.05 17.955H114.037V24.6051H114.05V17.955Z" fill="#ABC152"/>
<path d="M114.064 17.955H114.051V24.6051H114.064V17.955Z" fill="#ACC151"/>
<path d="M114.076 17.955H114.063V24.6051H114.076V17.955Z" fill="#ADC250"/>
<path d="M114.089 17.955H114.076V24.6051H114.089V17.955Z" fill="#AEC24F"/>
<path d="M114.102 17.955H114.089V24.6051H114.102V17.955Z" fill="#AFC24E"/>
<path d="M114.115 17.955H114.102V24.6051H114.115V17.955Z" fill="#B0C24D"/>
<path d="M114.128 17.955H114.115V24.6051H114.128V17.955Z" fill="#B1C24C"/>
<path d="M114.141 17.955H114.128V24.6051H114.141V17.955Z" fill="#B2C34B"/>
<path d="M114.154 17.955H114.141V24.6051H114.154V17.955Z" fill="#B3C34A"/>
<path d="M114.167 17.955H114.154V24.6051H114.167V17.955Z" fill="#B4C34A"/>
<path d="M114.18 17.955H114.167V24.6051H114.18V17.955Z" fill="#B5C349"/>
<path d="M114.192 17.955H114.179V24.6051H114.192V17.955Z" fill="#B6C448"/>
<path d="M114.205 17.955H114.192V24.6051H114.205V17.955Z" fill="#B7C447"/>
<path d="M114.218 17.955H114.205V24.6051H114.218V17.955Z" fill="#B8C446"/>
<path d="M114.231 17.955H114.218V24.6051H114.231V17.955Z" fill="#B9C445"/>
<path d="M114.244 17.955H114.231V24.6051H114.244V17.955Z" fill="#BAC444"/>
<path d="M114.257 17.955H114.244V24.6051H114.257V17.955Z" fill="#BBC543"/>
<path d="M114.27 17.955H114.257V24.6051H114.27V17.955Z" fill="#BCC542"/>
<path d="M114.283 17.955H114.27V24.6051H114.283V17.955Z" fill="#BDC541"/>
<path d="M114.296 17.955H114.283V24.6051H114.296V17.955Z" fill="#BEC540"/>
<path d="M114.309 17.955H114.296V24.6051H114.309V17.955Z" fill="#BFC53F"/>
<path d="M114.321 17.955H114.308V24.6051H114.321V17.955Z" fill="#C0C63E"/>
<path d="M114.335 17.955H114.322V24.6051H114.335V17.955Z" fill="#C1C63E"/>
<path d="M114.347 17.955H114.334V24.6051H114.347V17.955Z" fill="#C2C63D"/>
<path d="M114.361 17.955H114.348V24.6051H114.361V17.955Z" fill="#C3C63C"/>
<path d="M114.373 17.955H114.36V24.6051H114.373V17.955Z" fill="#C4C73B"/>
<path d="M114.387 17.955H114.374V24.6051H114.387V17.955Z" fill="#C5C73A"/>
<path d="M114.399 17.955H114.386V24.6051H114.399V17.955Z" fill="#C6C739"/>
<path d="M114.413 17.955H114.4V24.6051H114.413V17.955Z" fill="#C7C738"/>
<path d="M114.425 17.955H114.412V24.6051H114.425V17.955Z" fill="#C8C737"/>
<path d="M114.438 17.955H114.425V24.6051H114.438V17.955Z" fill="#C9C836"/>
<path d="M114.451 17.955H114.438V24.6051H114.451V17.955Z" fill="#CAC835"/>
<path d="M114.464 17.955H114.451V24.6051H114.464V17.955Z" fill="#CBC834"/>
<path d="M114.477 17.955H114.464V24.6051H114.477V17.955Z" fill="#CCC833"/>
<path d="M114.49 17.955H114.477V24.6051H114.49V17.955Z" fill="#CDC933"/>
<path d="M114.503 17.955H114.49V24.6051H114.503V17.955Z" fill="#CEC932"/>
<path d="M114.516 17.955H114.503V24.6051H114.516V17.955Z" fill="#CFC931"/>
<path d="M114.529 17.955H114.516V24.6051H114.529V17.955Z" fill="#D0C930"/>
<path d="M114.541 17.955H114.528V24.6051H114.541V17.955Z" fill="#D1C92F"/>
<path d="M114.555 17.955H114.542V24.6051H114.555V17.955Z" fill="#D2CA2E"/>
<path d="M114.567 17.955H114.554V24.6051H114.567V17.955Z" fill="#D3CA2D"/>
<path d="M114.58 17.955H114.567V24.6051H114.58V17.955Z" fill="#D4CA2C"/>
<path d="M114.593 17.955H114.58V24.6051H114.593V17.955Z" fill="#D5CA2B"/>
<path d="M114.606 17.955H114.593V24.6051H114.606V17.955Z" fill="#D6CA2A"/>
<path d="M114.619 17.955H114.606V24.6051H114.619V17.955Z" fill="#D7CB29"/>
<path d="M114.632 17.955H114.619V24.6051H114.632V17.955Z" fill="#D8CB28"/>
<path d="M114.645 17.955H114.632V24.6051H114.645V17.955Z" fill="#D9CB27"/>
<path d="M114.658 17.955H114.645V24.6051H114.658V17.955Z" fill="#DACB27"/>
<path d="M114.671 17.955H114.658V24.6051H114.671V17.955Z" fill="#DBCC26"/>
<path d="M114.684 17.955H114.671V24.6051H114.684V17.955Z" fill="#DCCC25"/>
<path d="M114.696 17.955H114.683V24.6051H114.696V17.955Z" fill="#DDCC24"/>
<path d="M114.71 17.955H114.697V24.6051H114.71V17.955Z" fill="#DECC23"/>
<path d="M114.722 17.955H114.709V24.6051H114.722V17.955Z" fill="#DFCC22"/>
<path d="M114.736 17.955H114.723V24.6051H114.736V17.955Z" fill="#E0CD21"/>
<path d="M114.748 17.955H114.735V24.6051H114.748V17.955Z" fill="#E1CD20"/>
<path d="M114.761 17.955H114.748V24.6051H114.761V17.955Z" fill="#E2CD1F"/>
<path d="M114.774 17.955H114.761V24.6051H114.774V17.955Z" fill="#E3CD1E"/>
<path d="M114.787 17.955H114.774V24.6051H114.787V17.955Z" fill="#E4CD1D"/>
<path d="M114.8 17.955H114.787V24.6051H114.8V17.955Z" fill="#E5CE1C"/>
<path d="M114.813 17.955H114.8V24.6051H114.813V17.955Z" fill="#E6CE1B"/>
<path d="M114.826 17.955H114.813V24.6051H114.826V17.955Z" fill="#E7CE1B"/>
<path d="M114.839 17.955H114.826V24.6051H114.839V17.955Z" fill="#E8CE1A"/>
<path d="M114.852 17.955H114.839V24.6051H114.852V17.955Z" fill="#E9CF19"/>
<path d="M114.864 17.955H114.851V24.6051H114.864V17.955Z" fill="#EACF18"/>
<path d="M114.878 17.955H114.865V24.6051H114.878V17.955Z" fill="#EBCF17"/>
<path d="M114.89 17.955H114.877V24.6051H114.89V17.955Z" fill="#ECCF16"/>
<path d="M114.904 17.955H114.891V24.6051H114.904V17.955Z" fill="#EDCF15"/>
<path d="M114.916 17.955H114.903V24.6051H114.916V17.955Z" fill="#EED014"/>
<path d="M114.93 17.955H114.917V24.6051H114.93V17.955Z" fill="#EFD013"/>
<path d="M114.942 17.955H114.929V24.6051H114.942V17.955Z" fill="#F0D012"/>
<path d="M114.955 17.955H114.942V24.6051H114.955V17.955Z" fill="#F1D011"/>
<path d="M114.968 17.955H114.955V24.6051H114.968V17.955Z" fill="#F2D010"/>
<path d="M114.981 17.955H114.968V24.6051H114.981V17.955Z" fill="#F3D110"/>
<path d="M114.994 17.955H114.981V24.6051H114.994V17.955Z" fill="#F4D10F"/>
<path d="M115.007 17.955H114.994V24.6051H115.007V17.955Z" fill="#F5D10E"/>
<path d="M115.02 17.955H115.007V24.6051H115.02V17.955Z" fill="#F6D10D"/>
<path d="M115.033 17.955H115.02V24.6051H115.033V17.955Z" fill="#F7D20C"/>
<path d="M115.046 17.955H115.033V24.6051H115.046V17.955Z" fill="#F8D20B"/>
<path d="M115.059 17.955H115.046V24.6051H115.059V17.955Z" fill="#F9D20A"/>
</g>
<mask id="mask3_293_4931" style="mask-type:luminance" maskUnits="userSpaceOnUse" x="6" y="1" width="9" height="7">
<path d="M13.1713 1.85913L6.57083 7.12074L14.4071 4.49031L13.1713 1.85913Z" fill="white"/>
</mask>
<g mask="url(#mask3_293_4931)">
<path d="M6.60491 1.85913H6.57083V7.12074H6.60491V1.85913Z" fill="#15A1DB"/>
<path d="M6.63899 1.85913H6.60491V7.12074H6.63899V1.85913Z" fill="#16A1DA"/>
<path d="M6.67381 1.85913H6.63973V7.12074H6.67381V1.85913Z" fill="#17A1D9"/>
<path d="M6.70789 1.85913H6.67381V7.12074H6.70789V1.85913Z" fill="#18A2D8"/>
<path d="M6.74271 1.85913H6.70863V7.12074H6.74271V1.85913Z" fill="#19A2D7"/>
<path d="M6.77679 1.85913H6.74271V7.12074H6.77679V1.85913Z" fill="#1AA2D6"/>
<path d="M6.81087 1.85913H6.77679V7.12074H6.81087V1.85913Z" fill="#1BA2D5"/>
<path d="M6.8457 1.85913H6.81161V7.12074H6.8457V1.85913Z" fill="#1CA3D5"/>
<path d="M6.87978 1.85913H6.8457V7.12074H6.87978V1.85913Z" fill="#1DA3D4"/>
<path d="M6.9146 1.85913H6.88052V7.12074H6.9146V1.85913Z" fill="#1EA3D3"/>
<path d="M6.94868 1.85913H6.9146V7.12074H6.94868V1.85913Z" fill="#1FA3D2"/>
<path d="M6.98276 1.85913H6.94868V7.12074H6.98276V1.85913Z" fill="#20A3D1"/>
<path d="M7.01758 1.85913H6.9835V7.12074H7.01758V1.85913Z" fill="#21A4D0"/>
<path d="M7.05166 1.85913H7.01758V7.12074H7.05166V1.85913Z" fill="#22A4CF"/>
<path d="M7.08574 1.85913H7.05166V7.12074H7.08574V1.85913Z" fill="#23A4CE"/>
<path d="M7.12056 1.85913H7.08648V7.12074H7.12056V1.85913Z" fill="#24A4CD"/>
<path d="M7.15464 1.85913H7.12056V7.12074H7.15464V1.85913Z" fill="#25A4CC"/>
<path d="M7.18946 1.85913H7.15538V7.12074H7.18946V1.85913Z" fill="#26A5CB"/>
<path d="M7.22354 1.85913H7.18946V7.12074H7.22354V1.85913Z" fill="#27A5CA"/>
<path d="M7.25762 1.85913H7.22354V7.12074H7.25762V1.85913Z" fill="#28A5CA"/>
<path d="M7.29244 1.85913H7.25836V7.12074H7.29244V1.85913Z" fill="#29A5C9"/>
<path d="M7.32652 1.85913H7.29244V7.12074H7.32652V1.85913Z" fill="#2AA6C8"/>
<path d="M7.36135 1.85913H7.32727V7.12074H7.36135V1.85913Z" fill="#2BA6C7"/>
<path d="M7.39542 1.85913H7.36134V7.12074H7.39542V1.85913Z" fill="#2CA6C6"/>
<path d="M7.4295 1.85913H7.39542V7.12074H7.4295V1.85913Z" fill="#2DA6C5"/>
<path d="M7.46433 1.85913H7.43025V7.12074H7.46433V1.85913Z" fill="#2EA6C4"/>
<path d="M7.49841 1.85913H7.46433V7.12074H7.49841V1.85913Z" fill="#2FA7C3"/>
<path d="M7.53323 1.85913H7.49915V7.12074H7.53323V1.85913Z" fill="#30A7C2"/>
<path d="M7.56731 1.85913H7.53323V7.12074H7.56731V1.85913Z" fill="#31A7C1"/>
<path d="M7.60139 1.85913H7.56731V7.12074H7.60139V1.85913Z" fill="#32A7C0"/>
<path d="M7.63621 1.85913H7.60213V7.12074H7.63621V1.85913Z" fill="#33A7BF"/>
<path d="M7.6703 1.85913H7.63622V7.12074H7.6703V1.85913Z" fill="#34A8BE"/>
<path d="M7.70438 1.85913H7.6703V7.12074H7.70438V1.85913Z" fill="#35A8BE"/>
<path d="M7.7392 1.85913H7.70512V7.12074H7.7392V1.85913Z" fill="#36A8BD"/>
<path d="M7.77328 1.85913H7.7392V7.12074H7.77328V1.85913Z" fill="#37A8BC"/>
<path d="M7.8081 1.85913H7.77402V7.12074H7.8081V1.85913Z" fill="#38A9BB"/>
<path d="M7.84218 1.85913H7.8081V7.12074H7.84218V1.85913Z" fill="#39A9BA"/>
<path d="M7.87626 1.85913H7.84218V7.12074H7.87626V1.85913Z" fill="#3AA9B9"/>
<path d="M7.91108 1.85913H7.877V7.12074H7.91108V1.85913Z" fill="#3BA9B8"/>
<path d="M7.94516 1.85913H7.91108V7.12074H7.94516V1.85913Z" fill="#3CA9B7"/>
<path d="M7.97998 1.85913H7.9459V7.12074H7.97998V1.85913Z" fill="#3DAAB6"/>
<path d="M8.01406 1.85913H7.97998V7.12074H8.01406V1.85913Z" fill="#3EAAB5"/>
<path d="M8.04814 1.85913H8.01406V7.12074H8.04814V1.85913Z" fill="#3FAAB4"/>
<path d="M8.08296 1.85913H8.04888V7.12074H8.08296V1.85913Z" fill="#40AAB3"/>
<path d="M8.11704 1.85913H8.08296V7.12074H8.11704V1.85913Z" fill="#41AAB2"/>
<path d="M8.15112 1.85913H8.11704V7.12074H8.15112V1.85913Z" fill="#42ABB2"/>
<path d="M8.18594 1.85913H8.15186V7.12074H8.18594V1.85913Z" fill="#43ABB1"/>
<path d="M8.22002 1.85913H8.18594V7.12074H8.22002V1.85913Z" fill="#44ABB0"/>
<path d="M8.25484 1.85913H8.22076V7.12074H8.25484V1.85913Z" fill="#45ABAF"/>
<path d="M8.28892 1.85913H8.25484V7.12074H8.28892V1.85913Z" fill="#46ACAE"/>
<path d="M8.32301 1.85913H8.28893V7.12074H8.32301V1.85913Z" fill="#47ACAD"/>
<path d="M8.35783 1.85913H8.32375V7.12074H8.35783V1.85913Z" fill="#48ACAC"/>
<path d="M8.39191 1.85913H8.35783V7.12074H8.39191V1.85913Z" fill="#49ACAB"/>
<path d="M8.42673 1.85913H8.39265V7.12074H8.42673V1.85913Z" fill="#4AACAA"/>
<path d="M8.46081 1.85913H8.42673V7.12074H8.46081V1.85913Z" fill="#4BADA9"/>
<path d="M8.49489 1.85913H8.46081V7.12074H8.49489V1.85913Z" fill="#4CADA8"/>
<path d="M8.52971 1.85913H8.49563V7.12074H8.52971V1.85913Z" fill="#4DADA7"/>
<path d="M8.56379 1.85913H8.52971V7.12074H8.56379V1.85913Z" fill="#4EADA7"/>
<path d="M8.59861 1.85913H8.56453V7.12074H8.59861V1.85913Z" fill="#4FAEA6"/>
<path d="M8.63269 1.85913H8.59861V7.12074H8.63269V1.85913Z" fill="#50AEA5"/>
<path d="M8.66677 1.85913H8.63269V7.12074H8.66677V1.85913Z" fill="#51AEA4"/>
<path d="M8.70159 1.85913H8.66751V7.12074H8.70159V1.85913Z" fill="#52AEA3"/>
<path d="M8.73567 1.85913H8.70159V7.12074H8.73567V1.85913Z" fill="#53AEA2"/>
<path d="M8.76975 1.85913H8.73567V7.12074H8.76975V1.85913Z" fill="#54AFA1"/>
<path d="M8.80457 1.85913H8.77049V7.12074H8.80457V1.85913Z" fill="#55AFA0"/>
<path d="M8.83865 1.85913H8.80457V7.12074H8.83865V1.85913Z" fill="#56AF9F"/>
<path d="M8.87347 1.85913H8.83939V7.12074H8.87347V1.85913Z" fill="#57AF9E"/>
<path d="M8.90755 1.85913H8.87347V7.12074H8.90755V1.85913Z" fill="#58AF9D"/>
<path d="M8.94163 1.85913H8.90755V7.12074H8.94163V1.85913Z" fill="#59B09C"/>
<path d="M8.97646 1.85913H8.94238V7.12074H8.97646V1.85913Z" fill="#5AB09B"/>
<path d="M9.01054 1.85913H8.97646V7.12074H9.01054V1.85913Z" fill="#5BB09B"/>
<path d="M9.04536 1.85913H9.01128V7.12074H9.04536V1.85913Z" fill="#5CB09A"/>
<path d="M9.07944 1.85913H9.04536V7.12074H9.07944V1.85913Z" fill="#5DB199"/>
<path d="M9.11352 1.85913H9.07944V7.12074H9.11352V1.85913Z" fill="#5EB198"/>
<path d="M9.14834 1.85913H9.11426V7.12074H9.14834V1.85913Z" fill="#5FB197"/>
<path d="M9.18243 1.85913H9.14835V7.12074H9.18243V1.85913Z" fill="#60B196"/>
<path d="M9.21725 1.85913H9.18317V7.12074H9.21725V1.85913Z" fill="#61B195"/>
<path d="M9.25133 1.85913H9.21725V7.12074H9.25133V1.85913Z" fill="#62B294"/>
<path d="M9.28541 1.85913H9.25133V7.12074H9.28541V1.85913Z" fill="#63B293"/>
<path d="M9.32023 1.85913H9.28615V7.12074H9.32023V1.85913Z" fill="#64B292"/>
<path d="M9.35431 1.85913H9.32023V7.12074H9.35431V1.85913Z" fill="#65B291"/>
<path d="M9.38839 1.85913H9.35431V7.12074H9.38839V1.85913Z" fill="#66B290"/>
<path d="M9.42321 1.85913H9.38913V7.12074H9.42321V1.85913Z" fill="#67B390"/>
<path d="M9.45729 1.85913H9.42321V7.12074H9.45729V1.85913Z" fill="#68B38F"/>
<path d="M9.49211 1.85913H9.45803V7.12074H9.49211V1.85913Z" fill="#69B38E"/>
<path d="M9.52619 1.85913H9.49211V7.12074H9.52619V1.85913Z" fill="#6AB38D"/>
<path d="M9.56027 1.85913H9.52619V7.12074H9.56027V1.85913Z" fill="#6BB48C"/>
<path d="M9.59509 1.85913H9.56101V7.12074H9.59509V1.85913Z" fill="#6CB48B"/>
<path d="M9.62917 1.85913H9.59509V7.12074H9.62917V1.85913Z" fill="#6DB48A"/>
<path d="M9.66399 1.85913H9.62991V7.12074H9.66399V1.85913Z" fill="#6EB489"/>
<path d="M9.69807 1.85913H9.66399V7.12074H9.69807V1.85913Z" fill="#6FB488"/>
<path d="M9.73216 1.85913H9.69807V7.12074H9.73216V1.85913Z" fill="#70B587"/>
<path d="M9.76698 1.85913H9.73289V7.12074H9.76698V1.85913Z" fill="#71B586"/>
<path d="M9.80106 1.85913H9.76698V7.12074H9.80106V1.85913Z" fill="#72B585"/>
<path d="M9.83588 1.85913H9.8018V7.12074H9.83588V1.85913Z" fill="#73B584"/>
<path d="M9.86996 1.85913H9.83588V7.12074H9.86996V1.85913Z" fill="#74B684"/>
<path d="M9.90404 1.85913H9.86996V7.12074H9.90404V1.85913Z" fill="#75B683"/>
<path d="M9.93886 1.85913H9.90478V7.12074H9.93886V1.85913Z" fill="#76B682"/>
<path d="M9.97294 1.85913H9.93886V7.12074H9.97294V1.85913Z" fill="#77B681"/>
<path d="M10.007 1.85913H9.97294V7.12074H10.007V1.85913Z" fill="#78B680"/>
<path d="M10.0418 1.85913H10.0078V7.12074H10.0418V1.85913Z" fill="#79B77F"/>
<path d="M10.0759 1.85913H10.0418V7.12074H10.0759V1.85913Z" fill="#7AB77E"/>
<path d="M10.1107 1.85913H10.0767V7.12074H10.1107V1.85913Z" fill="#7BB77D"/>
<path d="M10.1448 1.85913H10.1107V7.12074H10.1448V1.85913Z" fill="#7CB77C"/>
<path d="M10.1789 1.85913H10.1448V7.12074H10.1789V1.85913Z" fill="#7DB77B"/>
<path d="M10.2137 1.85913H10.1796V7.12074H10.2137V1.85913Z" fill="#7EB87A"/>
<path d="M10.2478 1.85913H10.2137V7.12074H10.2478V1.85913Z" fill="#7FB879"/>
<path d="M10.2826 1.85913H10.2485V7.12074H10.2826V1.85913Z" fill="#80B878"/>
<path d="M10.3167 1.85913H10.2826V7.12074H10.3167V1.85913Z" fill="#81B878"/>
<path d="M10.3508 1.85913H10.3167V7.12074H10.3508V1.85913Z" fill="#82B977"/>
<path d="M10.3856 1.85913H10.3515V7.12074H10.3856V1.85913Z" fill="#83B976"/>
<path d="M10.4197 1.85913H10.3856V7.12074H10.4197V1.85913Z" fill="#84B975"/>
<path d="M10.4545 1.85913H10.4204V7.12074H10.4545V1.85913Z" fill="#85B974"/>
<path d="M10.4886 1.85913H10.4545V7.12074H10.4886V1.85913Z" fill="#86B973"/>
<path d="M10.5227 1.85913H10.4886V7.12074H10.5227V1.85913Z" fill="#88BA72"/>
<path d="M10.5575 1.85913H10.5234V7.12074H10.5575V1.85913Z" fill="#89BA71"/>
<path d="M10.5916 1.85913H10.5575V7.12074H10.5916V1.85913Z" fill="#8ABA70"/>
<path d="M10.6256 1.85913H10.5916V7.12074H10.6256V1.85913Z" fill="#8BBA6F"/>
<path d="M10.6605 1.85913H10.6264V7.12074H10.6605V1.85913Z" fill="#8CBA6E"/>
<path d="M10.6945 1.85913H10.6605V7.12074H10.6945V1.85913Z" fill="#8DBB6D"/>
<path d="M10.7294 1.85913H10.6953V7.12074H10.7294V1.85913Z" fill="#8EBB6D"/>
<path d="M10.7634 1.85913H10.7294V7.12074H10.7634V1.85913Z" fill="#8FBB6C"/>
<path d="M10.7975 1.85913H10.7635V7.12074H10.7975V1.85913Z" fill="#90BB6B"/>
<path d="M10.8324 1.85913H10.7983V7.12074H10.8324V1.85913Z" fill="#91BC6A"/>
<path d="M10.8664 1.85913H10.8324V7.12074H10.8664V1.85913Z" fill="#92BC69"/>
<path d="M10.9013 1.85913H10.8672V7.12074H10.9013V1.85913Z" fill="#93BC68"/>
<path d="M10.9353 1.85913H10.9013V7.12074H10.9353V1.85913Z" fill="#94BC67"/>
<path d="M10.9694 1.85913H10.9353V7.12074H10.9694V1.85913Z" fill="#95BC66"/>
<path d="M11.0042 1.85913H10.9702V7.12074H11.0042V1.85913Z" fill="#96BD65"/>
<path d="M11.0383 1.85913H11.0042V7.12074H11.0383V1.85913Z" fill="#97BD64"/>
<path d="M11.0731 1.85913H11.0391V7.12074H11.0731V1.85913Z" fill="#98BD63"/>
<path d="M11.1072 1.85913H11.0731V7.12074H11.1072V1.85913Z" fill="#99BD62"/>
<path d="M11.1413 1.85913H11.1072V7.12074H11.1413V1.85913Z" fill="#9ABD61"/>
<path d="M11.1761 1.85913H11.142V7.12074H11.1761V1.85913Z" fill="#9BBE61"/>
<path d="M11.2102 1.85913H11.1761V7.12074H11.2102V1.85913Z" fill="#9CBE60"/>
<path d="M11.2443 1.85913H11.2102V7.12074H11.2443V1.85913Z" fill="#9DBE5F"/>
<path d="M11.2791 1.85913H11.245V7.12074H11.2791V1.85913Z" fill="#9EBE5E"/>
<path d="M11.3132 1.85913H11.2791V7.12074H11.3132V1.85913Z" fill="#9FBF5D"/>
<path d="M11.348 1.85913H11.3139V7.12074H11.348V1.85913Z" fill="#A0BF5C"/>
<path d="M11.3821 1.85913H11.348V7.12074H11.3821V1.85913Z" fill="#A1BF5B"/>
<path d="M11.4162 1.85913H11.3821V7.12074H11.4162V1.85913Z" fill="#A2BF5A"/>
<path d="M11.451 1.85913H11.4169V7.12074H11.451V1.85913Z" fill="#A3BF59"/>
<path d="M11.4851 1.85913H11.451V7.12074H11.4851V1.85913Z" fill="#A4C058"/>
<path d="M11.5199 1.85913H11.4858V7.12074H11.5199V1.85913Z" fill="#A5C057"/>
<path d="M11.554 1.85913H11.5199V7.12074H11.554V1.85913Z" fill="#A6C056"/>
<path d="M11.5881 1.85913H11.554V7.12074H11.5881V1.85913Z" fill="#A7C055"/>
<path d="M11.6229 1.85913H11.5888V7.12074H11.6229V1.85913Z" fill="#A8C155"/>
<path d="M11.657 1.85913H11.6229V7.12074H11.657V1.85913Z" fill="#A9C154"/>
<path d="M11.6918 1.85913H11.6577V7.12074H11.6918V1.85913Z" fill="#AAC153"/>
<path d="M11.7259 1.85913H11.6918V7.12074H11.7259V1.85913Z" fill="#ABC152"/>
<path d="M11.7599 1.85913H11.7259V7.12074H11.7599V1.85913Z" fill="#ACC151"/>
<path d="M11.7948 1.85913H11.7607V7.12074H11.7948V1.85913Z" fill="#ADC250"/>
<path d="M11.8288 1.85913H11.7948V7.12074H11.8288V1.85913Z" fill="#AEC24F"/>
<path d="M11.8629 1.85913H11.8288V7.12074H11.8629V1.85913Z" fill="#AFC24E"/>
<path d="M11.8977 1.85913H11.8637V7.12074H11.8977V1.85913Z" fill="#B0C24D"/>
<path d="M11.9318 1.85913H11.8977V7.12074H11.9318V1.85913Z" fill="#B1C24C"/>
<path d="M11.9666 1.85913H11.9326V7.12074H11.9666V1.85913Z" fill="#B2C34B"/>
<path d="M12.0007 1.85913H11.9666V7.12074H12.0007V1.85913Z" fill="#B3C34A"/>
<path d="M12.0348 1.85913H12.0007V7.12074H12.0348V1.85913Z" fill="#B4C34A"/>
<path d="M12.0696 1.85913H12.0355V7.12074H12.0696V1.85913Z" fill="#B5C349"/>
<path d="M12.1037 1.85913H12.0696V7.12074H12.1037V1.85913Z" fill="#B6C448"/>
<path d="M12.1385 1.85913H12.1044V7.12074H12.1385V1.85913Z" fill="#B7C447"/>
<path d="M12.1726 1.85913H12.1385V7.12074H12.1726V1.85913Z" fill="#B8C446"/>
<path d="M12.2067 1.85913H12.1726V7.12074H12.2067V1.85913Z" fill="#B9C445"/>
<path d="M12.2415 1.85913H12.2074V7.12074H12.2415V1.85913Z" fill="#BAC444"/>
<path d="M12.2756 1.85913H12.2415V7.12074H12.2756V1.85913Z" fill="#BBC543"/>
<path d="M12.3097 1.85913H12.2756V7.12074H12.3097V1.85913Z" fill="#BCC542"/>
<path d="M12.3445 1.85913H12.3104V7.12074H12.3445V1.85913Z" fill="#BDC541"/>
<path d="M12.3786 1.85913H12.3445V7.12074H12.3786V1.85913Z" fill="#BEC540"/>
<path d="M12.4134 1.85913H12.3793V7.12074H12.4134V1.85913Z" fill="#BFC53F"/>
<path d="M12.4475 1.85913H12.4134V7.12074H12.4475V1.85913Z" fill="#C0C63E"/>
<path d="M12.4815 1.85913H12.4475V7.12074H12.4815V1.85913Z" fill="#C1C63E"/>
<path d="M12.5164 1.85913H12.4823V7.12074H12.5164V1.85913Z" fill="#C2C63D"/>
<path d="M12.5504 1.85913H12.5164V7.12074H12.5504V1.85913Z" fill="#C3C63C"/>
<path d="M12.5853 1.85913H12.5512V7.12074H12.5853V1.85913Z" fill="#C4C73B"/>
<path d="M12.6193 1.85913H12.5853V7.12074H12.6193V1.85913Z" fill="#C5C73A"/>
<path d="M12.6534 1.85913H12.6194V7.12074H12.6534V1.85913Z" fill="#C6C739"/>
<path d="M12.6883 1.85913H12.6542V7.12074H12.6883V1.85913Z" fill="#C7C738"/>
<path d="M12.7223 1.85913H12.6882V7.12074H12.7223V1.85913Z" fill="#C8C737"/>
<path d="M12.7572 1.85913H12.7231V7.12074H12.7572V1.85913Z" fill="#C9C836"/>
<path d="M12.7912 1.85913H12.7572V7.12074H12.7912V1.85913Z" fill="#CAC835"/>
<path d="M12.8253 1.85913H12.7912V7.12074H12.8253V1.85913Z" fill="#CBC834"/>
<path d="M12.8601 1.85913H12.8261V7.12074H12.8601V1.85913Z" fill="#CCC833"/>
<path d="M12.8942 1.85913H12.8601V7.12074H12.8942V1.85913Z" fill="#CDC933"/>
<path d="M12.9283 1.85913H12.8942V7.12074H12.9283V1.85913Z" fill="#CEC932"/>
<path d="M12.9631 1.85913H12.929V7.12074H12.9631V1.85913Z" fill="#CFC931"/>
<path d="M12.9972 1.85913H12.9631V7.12074H12.9972V1.85913Z" fill="#D0C930"/>
<path d="M13.032 1.85913H12.9979V7.12074H13.032V1.85913Z" fill="#D1C92F"/>
<path d="M13.0661 1.85913H13.032V7.12074H13.0661V1.85913Z" fill="#D2CA2E"/>
<path d="M13.1002 1.85913H13.0661V7.12074H13.1002V1.85913Z" fill="#D3CA2D"/>
<path d="M13.135 1.85913H13.1009V7.12074H13.135V1.85913Z" fill="#D4CA2C"/>
<path d="M13.1691 1.85913H13.135V7.12074H13.1691V1.85913Z" fill="#D5CA2B"/>
<path d="M13.2039 1.85913H13.1698V7.12074H13.2039V1.85913Z" fill="#D6CA2A"/>
<path d="M13.238 1.85913H13.2039V7.12074H13.238V1.85913Z" fill="#D7CB29"/>
<path d="M13.2721 1.85913H13.238V7.12074H13.2721V1.85913Z" fill="#D8CB28"/>
<path d="M13.3069 1.85913H13.2728V7.12074H13.3069V1.85913Z" fill="#D9CB27"/>
<path d="M13.341 1.85913H13.3069V7.12074H13.341V1.85913Z" fill="#DACB27"/>
<path d="M13.3758 1.85913H13.3417V7.12074H13.3758V1.85913Z" fill="#DBCC26"/>
<path d="M13.4099 1.85913H13.3758V7.12074H13.4099V1.85913Z" fill="#DCCC25"/>
<path d="M13.4439 1.85913H13.4099V7.12074H13.4439V1.85913Z" fill="#DDCC24"/>
<path d="M13.4788 1.85913H13.4447V7.12074H13.4788V1.85913Z" fill="#DECC23"/>
<path d="M13.5128 1.85913H13.4788V7.12074H13.5128V1.85913Z" fill="#DFCC22"/>
<path d="M13.5469 1.85913H13.5128V7.12074H13.5469V1.85913Z" fill="#E0CD21"/>
<path d="M13.5817 1.85913H13.5477V7.12074H13.5817V1.85913Z" fill="#E1CD20"/>
<path d="M13.6158 1.85913H13.5817V7.12074H13.6158V1.85913Z" fill="#E2CD1F"/>
<path d="M13.6507 1.85913H13.6166V7.12074H13.6507V1.85913Z" fill="#E3CD1E"/>
<path d="M13.6847 1.85913H13.6507V7.12074H13.6847V1.85913Z" fill="#E4CD1D"/>
<path d="M13.7188 1.85913H13.6847V7.12074H13.7188V1.85913Z" fill="#E5CE1C"/>
<path d="M13.7536 1.85913H13.7196V7.12074H13.7536V1.85913Z" fill="#E6CE1B"/>
<path d="M13.7877 1.85913H13.7536V7.12074H13.7877V1.85913Z" fill="#E7CE1B"/>
<path d="M13.8225 1.85913H13.7885V7.12074H13.8225V1.85913Z" fill="#E8CE1A"/>
<path d="M13.8566 1.85913H13.8225V7.12074H13.8566V1.85913Z" fill="#E9CF19"/>
<path d="M13.8907 1.85913H13.8566V7.12074H13.8907V1.85913Z" fill="#EACF18"/>
<path d="M13.9255 1.85913H13.8914V7.12074H13.9255V1.85913Z" fill="#EBCF17"/>
<path d="M13.9596 1.85913H13.9255V7.12074H13.9596V1.85913Z" fill="#ECCF16"/>
<path d="M13.9944 1.85913H13.9603V7.12074H13.9944V1.85913Z" fill="#EDCF15"/>
<path d="M14.0285 1.85913H13.9944V7.12074H14.0285V1.85913Z" fill="#EED014"/>
<path d="M14.0626 1.85913H14.0285V7.12074H14.0626V1.85913Z" fill="#EFD013"/>
<path d="M14.0974 1.85913H14.0633V7.12074H14.0974V1.85913Z" fill="#F0D012"/>
<path d="M14.1315 1.85913H14.0974V7.12074H14.1315V1.85913Z" fill="#F1D011"/>
<path d="M14.1656 1.85913H14.1315V7.12074H14.1656V1.85913Z" fill="#F2D010"/>
<path d="M14.2004 1.85913H14.1663V7.12074H14.2004V1.85913Z" fill="#F3D110"/>
<path d="M14.2345 1.85913H14.2004V7.12074H14.2345V1.85913Z" fill="#F4D10F"/>
<path d="M14.2693 1.85913H14.2352V7.12074H14.2693V1.85913Z" fill="#F5D10E"/>
<path d="M14.3034 1.85913H14.2693V7.12074H14.3034V1.85913Z" fill="#F6D10D"/>
<path d="M14.3374 1.85913H14.3034V7.12074H14.3374V1.85913Z" fill="#F7D20C"/>
<path d="M14.3723 1.85913H14.3382V7.12074H14.3723V1.85913Z" fill="#F8D20B"/>
<path d="M14.4063 1.85913H14.3723V7.12074H14.4063V1.85913Z" fill="#F9D20A"/>
</g>
<mask id="mask4_293_4931" style="mask-type:luminance" maskUnits="userSpaceOnUse" x="13" y="1" width="11" height="11">
<path d="M13.1713 1.85913L15.8385 7.53848C16.4867 8.91944 16.1785 10.5671 15.0754 11.6107L23.8666 6.95169L13.1713 1.85913Z" fill="white"/>
</mask>
<g mask="url(#mask4_293_4931)">
<path d="M23.8666 7.25072L23.1168 8.56631L13.1713 2.73519V1.85913H23.8666V7.25072Z" fill="#15A1DB"/>
<path d="M23.1168 8.56632L23.0628 8.66174L13.1713 2.86293V2.7352L23.1168 8.56632Z" fill="#15A1DB"/>
<path d="M23.0628 8.66173L23.0079 8.75715L13.1713 2.98989V2.86292L23.0628 8.66173Z" fill="#16A1DA"/>
<path d="M23.0079 8.75716L22.9538 8.85258L13.1713 3.11763V2.9899L23.0079 8.75716Z" fill="#17A1D9"/>
<path d="M22.9538 8.85257L22.899 8.94799L13.1713 3.24459V3.11761L22.9538 8.85257Z" fill="#18A2D8"/>
<path d="M22.899 8.94799L22.8449 9.04341L13.1713 3.37233V3.2446L22.899 8.94799Z" fill="#19A2D7"/>
<path d="M22.8449 9.0434L22.7909 9.13882L13.1713 3.49929V3.37231L22.8449 9.0434Z" fill="#1AA2D6"/>
<path d="M22.7909 9.13883L22.736 9.23425L13.1713 3.62627V3.4993L22.7909 9.13883Z" fill="#1BA2D5"/>
<path d="M22.736 9.23426L22.6819 9.32968L13.1713 3.75401V3.62628L22.736 9.23426Z" fill="#1CA3D5"/>
<path d="M22.6819 9.32967L22.6271 9.42509L13.1713 3.88097V3.754L22.6819 9.32967Z" fill="#1DA3D4"/>
<path d="M22.6271 9.42509L22.573 9.52051L13.1713 4.00871V3.88098L22.6271 9.42509Z" fill="#1EA3D3"/>
<path d="M22.573 9.5205L22.5182 9.61592L13.1713 4.13567V4.0087L22.573 9.5205Z" fill="#1FA3D2"/>
<path d="M22.5182 9.61593L22.4641 9.71135L13.1713 4.26341V4.13568L22.5182 9.61593Z" fill="#20A3D1"/>
<path d="M22.4641 9.71134L22.41 9.80676L13.1713 4.39037V4.2634L22.4641 9.71134Z" fill="#21A4D0"/>
<path d="M22.41 9.80677L22.3552 9.90218L13.1713 4.51811V4.39038L22.41 9.80677Z" fill="#22A4CF"/>
<path d="M22.3552 9.90217L22.3011 9.99759L13.1713 4.64507V4.5181L22.3552 9.90217Z" fill="#23A4CE"/>
<path d="M22.3011 9.9976L22.2463 10.093L13.1713 4.77206V4.64508L22.3011 9.9976Z" fill="#24A4CD"/>
<path d="M22.2463 10.093L22.1922 10.1885L13.1713 4.89979V4.77206L22.2463 10.093Z" fill="#25A4CC"/>
<path d="M22.1922 10.1884L22.1381 10.2839L13.1713 5.02676V4.89978L22.1922 10.1884Z" fill="#26A5CB"/>
<path d="M22.1381 10.2839L22.0833 10.3793L13.1713 5.15449V5.02676L22.1381 10.2839Z" fill="#27A5CA"/>
<path d="M22.0833 10.3793L22.0292 10.4747L13.1713 5.28146V5.15448L22.0833 10.3793Z" fill="#28A5CA"/>
<path d="M22.0292 10.4747L21.9744 10.5701L13.1713 5.40919V5.28146L22.0292 10.4747Z" fill="#29A5C9"/>
<path d="M21.9744 10.5701L21.9203 10.6656L13.1713 5.53619V5.40921L21.9744 10.5701Z" fill="#2AA6C8"/>
<path d="M21.9203 10.6655L21.8655 10.761L13.1713 5.66314V5.53616L21.9203 10.6655Z" fill="#2BA6C7"/>
<path d="M21.8655 10.761L21.8114 10.8564L13.1713 5.79087V5.66315L21.8655 10.761Z" fill="#2CA6C6"/>
<path d="M21.8114 10.8564L21.7573 10.9518L13.1713 5.91784V5.79086L21.8114 10.8564Z" fill="#2DA6C5"/>
<path d="M21.7573 10.9518L21.7025 11.0472L13.1713 6.04557V5.91785L21.7573 10.9518Z" fill="#2EA6C4"/>
<path d="M21.7025 11.0472L21.6484 11.1427L13.1713 6.17257V6.04559L21.7025 11.0472Z" fill="#2FA7C3"/>
<path d="M21.6484 11.1426L21.5936 11.2381L13.1713 6.30027V6.17255L21.6484 11.1426Z" fill="#30A7C2"/>
<path d="M21.5936 11.2381L21.5395 11.3335L13.1713 6.42727V6.30029L21.5936 11.2381Z" fill="#31A7C1"/>
<path d="M21.5395 11.3335L21.4854 11.4289L13.1713 6.55422V6.42725L21.5395 11.3335Z" fill="#32A7C0"/>
<path d="M21.4854 11.4289L21.4306 11.5243L13.1713 6.68196V6.55423L21.4854 11.4289Z" fill="#33A7BF"/>
<path d="M21.4306 11.5243L21.3817 11.61H21.3595L13.1713 6.80892V6.68195L21.4306 11.5243Z" fill="#34A8BE"/>
<path d="M21.1424 11.61L13.1713 6.93666V6.80893L21.3595 11.61H21.1424Z" fill="#35A8BE"/>
<path d="M20.9253 11.61L13.1713 7.06365V6.93668L21.1424 11.61H20.9253Z" fill="#36A8BD"/>
<path d="M20.7083 11.61L13.1713 7.19136V7.06363L20.9253 11.61H20.7083Z" fill="#37A8BC"/>
<path d="M20.4912 11.61L13.1713 7.31835V7.19138L20.7083 11.61H20.4912Z" fill="#38A9BB"/>
<path d="M20.2741 11.61L13.1713 7.44606V7.31833L20.4912 11.61H20.2741Z" fill="#39A9BA"/>
<path d="M20.057 11.61L13.1713 7.57305V7.44608L20.2741 11.61H20.057Z" fill="#3AA9B9"/>
<path d="M19.8399 11.61L13.1713 7.70004V7.57306L20.057 11.61H19.8399Z" fill="#3BA9B8"/>
<path d="M19.6229 11.61L13.1713 7.82774V7.70001L19.8399 11.61H19.6229Z" fill="#3CA9B7"/>
<path d="M19.4058 11.61L13.1713 7.95473V7.82776L19.6229 11.61H19.4058Z" fill="#3DAAB6"/>
<path d="M19.1887 11.61L13.1713 8.08244V7.95471L19.4058 11.61H19.1887Z" fill="#3EAAB5"/>
<path d="M18.9716 11.61L13.1713 8.20943V8.08246L19.1887 11.61H18.9716Z" fill="#3FAAB4"/>
<path d="M18.7538 11.61L13.1713 8.33717V8.20944L18.9716 11.61H18.7538Z" fill="#40AAB3"/>
<path d="M18.5367 11.61L13.1713 8.46413V8.33716L18.7538 11.61H18.5367Z" fill="#41AAB2"/>
<path d="M18.3197 11.61L13.1713 8.59112V8.46414L18.5367 11.61H18.3197Z" fill="#42ABB2"/>
<path d="M18.1026 11.61L13.1713 8.71882V8.59109L18.3197 11.61H18.1026Z" fill="#43ABB1"/>
<path d="M17.8855 11.61L13.1713 8.84582V8.71884L18.1026 11.61H17.8855Z" fill="#44ABB0"/>
<path d="M17.6684 11.61L13.1713 8.97352V8.84579L17.8855 11.61H17.6684Z" fill="#45ABAF"/>
<path d="M17.4514 11.61L13.1713 9.10052V8.97354L17.6684 11.61H17.4514Z" fill="#46ACAE"/>
<path d="M17.2343 11.61L13.1713 9.22825V9.10052L17.4514 11.61H17.2343Z" fill="#47ACAD"/>
<path d="M17.0172 11.61L13.1713 9.35522V9.22824L17.2343 11.61H17.0172Z" fill="#48ACAC"/>
<path d="M16.8001 11.61L13.1713 9.4822V9.35522L17.0172 11.61H16.8001Z" fill="#49ACAB"/>
<path d="M16.583 11.61L13.1713 9.60991V9.48218L16.8001 11.61H16.583Z" fill="#4AACAA"/>
<path d="M16.366 11.61L13.1713 9.7369V9.60992L16.583 11.61H16.366Z" fill="#4BADA9"/>
<path d="M16.1489 11.61L13.1713 9.86463V9.73691L16.366 11.61H16.1489Z" fill="#4CADA8"/>
<path d="M15.9311 11.61L13.1713 9.9916V9.86462L16.1489 11.61H15.9311Z" fill="#4DADA7"/>
<path d="M15.714 11.61L13.1713 10.1193V9.99161L15.9311 11.61H15.714Z" fill="#4EADA7"/>
<path d="M15.4969 11.61L13.1713 10.2463V10.1193L15.714 11.61H15.4969Z" fill="#4FAEA6"/>
<path d="M15.2798 11.61L13.1713 10.374V10.2463L15.4969 11.61H15.2798Z" fill="#50AEA5"/>
<path d="M15.0628 11.61L13.1713 10.501V10.374L15.2798 11.61H15.0628Z" fill="#51AEA4"/>
<path d="M14.8457 11.61L13.1713 10.628V10.501L15.0628 11.61H14.8457Z" fill="#52AEA3"/>
<path d="M14.6286 11.61L13.1713 10.7557V10.628L14.8457 11.61H14.6286Z" fill="#53AEA2"/>
<path d="M14.4115 11.61L13.1713 10.8827V10.7557L14.6286 11.61H14.4115Z" fill="#54AFA1"/>
<path d="M14.1945 11.61L13.1713 11.0104V10.8827L14.4115 11.61H14.1945Z" fill="#55AFA0"/>
<path d="M13.9774 11.61L13.1713 11.1374V11.0104L14.1945 11.61H13.9774Z" fill="#56AF9F"/>
<path d="M13.7603 11.61L13.1713 11.2651V11.1374L13.9774 11.61H13.7603Z" fill="#57AF9E"/>
<path d="M13.5432 11.61L13.1713 11.3921V11.2651L13.7603 11.61H13.5432Z" fill="#58AF9D"/>
<path d="M13.3262 11.61L13.1713 11.5191V11.3921L13.5432 11.61H13.3262Z" fill="#59B09C"/>
<path d="M13.1713 11.5191L13.3262 11.61H13.1713V11.5191Z" fill="#5AB09B"/>
</g>
<mask id="mask5_293_4931" style="mask-type:luminance" maskUnits="userSpaceOnUse" x="1" y="6" width="28" height="19">
<path d="M28.663 9.23424L23.8666 6.95093L15.0754 11.61C10.6605 15.7866 6.24485 19.9641 1.82996 24.1408L28.663 9.23424Z" fill="white"/>
</mask>
<g mask="url(#mask5_293_4931)">
<path d="M28.6634 7.00202L28.6178 6.95093H28.6634V7.00202Z" fill="#40AAB3"/>
<path d="M28.663 7.17483L28.4645 6.95093H28.6179L28.663 7.00202V7.17483Z" fill="#41AAB2"/>
<path d="M28.663 7.34763L28.3119 6.95093H28.4645L28.663 7.17483V7.34763Z" fill="#42ABB2"/>
<path d="M28.663 7.51969L28.1585 6.95093H28.3119L28.663 7.34763V7.51969Z" fill="#43ABB1"/>
<path d="M28.663 7.6925L28.0059 6.95093H28.1585L28.663 7.51969V7.6925Z" fill="#44ABB0"/>
<path d="M28.663 7.8653L27.8533 6.95093H28.0059L28.663 7.6925V7.8653Z" fill="#45ABAF"/>
<path d="M28.663 8.03811L27.6999 6.95093H27.8533L28.663 7.8653V8.03811Z" fill="#46ACAE"/>
<path d="M28.663 8.21092L27.5473 6.95093H27.6999L28.663 8.03811V8.21092Z" fill="#47ACAD"/>
<path d="M28.663 8.38297L27.3939 6.95093H27.5473L28.663 8.21092V8.38297Z" fill="#48ACAC"/>
<path d="M28.663 8.55578L27.2413 6.95093H27.3939L28.663 8.38298V8.55578Z" fill="#49ACAB"/>
<path d="M28.663 8.72859L27.0879 6.95093H27.2413L28.663 8.55578V8.72859Z" fill="#4AACAA"/>
<path d="M28.663 8.9014L26.9353 6.95093H27.0879L28.663 8.72859V8.9014Z" fill="#4BADA9"/>
<path d="M28.663 9.07345L26.7827 6.95093H26.9353L28.663 8.9014V9.07345Z" fill="#4CADA8"/>
<path d="M28.663 9.24626L26.6293 6.95093H26.7827L28.663 9.07345V9.24626Z" fill="#4DADA7"/>
<path d="M28.663 9.41907L26.4767 6.95093H26.6293L28.663 9.24626V9.41907Z" fill="#4EADA7"/>
<path d="M28.663 9.4356L28.5867 9.50547L26.3233 6.95093H26.4767L28.663 9.41907V9.4356Z" fill="#4FAEA6"/>
<path d="M28.5867 9.50547L28.5023 9.58286L26.1707 6.95093H26.3234L28.5867 9.50547Z" fill="#50AEA5"/>
<path d="M28.5023 9.58286L28.4171 9.6595L26.0181 6.95093H26.1707L28.5023 9.58286Z" fill="#51AEA4"/>
<path d="M28.4171 9.6595L28.3326 9.73688L25.8647 6.95093H26.0181L28.4171 9.6595Z" fill="#52AEA3"/>
<path d="M28.3326 9.73688L28.2482 9.81352L25.7121 6.95093H25.8647L28.3326 9.73688Z" fill="#53AEA2"/>
<path d="M28.2481 9.81352L28.1637 9.89091L25.5588 6.95093H25.7121L28.2481 9.81352Z" fill="#54AFA1"/>
<path d="M28.1637 9.89091L28.0785 9.96829L25.4061 6.95093H25.5588L28.1637 9.89091Z" fill="#55AFA0"/>
<path d="M28.0785 9.96829L27.994 10.0449L25.2535 6.95093H25.4061L28.0785 9.96829Z" fill="#56AF9F"/>
<path d="M27.994 10.0449L27.9096 10.1223L25.1002 6.95093H25.2535L27.994 10.0449Z" fill="#57AF9E"/>
<path d="M27.9096 10.1223L27.8251 10.1997L24.9475 6.95093H25.1002L27.9096 10.1223Z" fill="#58AF9D"/>
<path d="M27.8251 10.1997L27.7399 10.2763L24.7942 6.95093H24.9476L27.8251 10.1997Z" fill="#59B09C"/>
<path d="M27.7399 10.2763L27.6554 10.3537L24.6416 6.95093H24.7942L27.7399 10.2763Z" fill="#5AB09B"/>
<path d="M27.6554 10.3537L27.571 10.4304L24.4889 6.95093H24.6416L27.6554 10.3537Z" fill="#5BB09B"/>
<path d="M27.571 10.4304L27.4865 10.5078L24.3356 6.95093H24.4889L27.571 10.4304Z" fill="#5CB09A"/>
<path d="M27.4865 10.5078L27.4013 10.5851L24.183 6.95093H24.3356L27.4865 10.5078Z" fill="#5DB199"/>
<path d="M27.4013 10.5851L27.3169 10.6618L24.0296 6.95093H24.183L27.4013 10.5851Z" fill="#5EB198"/>
<path d="M27.3169 10.6618L27.2324 10.7392L23.877 6.95093H24.0296L27.3169 10.6618Z" fill="#5FB197"/>
<path d="M27.2324 10.7392L27.148 10.8158L23.7244 6.95093H23.877L27.2324 10.7392Z" fill="#60B196"/>
<path d="M27.148 10.8158L27.0635 10.8932L23.571 6.95093H23.7244L27.148 10.8158Z" fill="#61B195"/>
<path d="M27.0635 10.8932L26.9783 10.9706L23.4184 6.95093H23.571L27.0635 10.8932Z" fill="#62B294"/>
<path d="M26.9783 10.9706L26.8938 11.0472L23.265 6.95093H23.4184L26.9783 10.9706Z" fill="#63B293"/>
<path d="M26.8938 11.0472L26.8094 11.1246L23.1124 6.95093H23.265L26.8938 11.0472Z" fill="#64B292"/>
<path d="M26.8094 11.1246L26.7249 11.202L22.959 6.95093H23.1124L26.8094 11.1246Z" fill="#65B291"/>
<path d="M26.7249 11.202L26.6397 11.2786L22.8064 6.95093H22.959L26.7249 11.202Z" fill="#66B290"/>
<path d="M26.6397 11.2786L26.5553 11.356L22.6538 6.95093H22.8064L26.6397 11.2786Z" fill="#67B390"/>
<path d="M26.5552 11.356L26.4708 11.4327L22.5004 6.95093H22.6538L26.5552 11.356Z" fill="#68B38F"/>
<path d="M26.4708 11.4327L26.3863 11.51L22.3478 6.95093H22.5004L26.4708 11.4327Z" fill="#69B38E"/>
<path d="M26.3863 11.51L26.3011 11.5874L22.1944 6.95093H22.3478L26.3863 11.51Z" fill="#6AB38D"/>
<path d="M26.3011 11.5874L26.2167 11.6641L22.0418 6.95093H22.1944L26.3011 11.5874Z" fill="#6BB48C"/>
<path d="M26.2167 11.6641L26.1322 11.7414L21.8892 6.95093H22.0418L26.2167 11.6641Z" fill="#6CB48B"/>
<path d="M26.1322 11.7414L26.0477 11.8181L21.7358 6.95093H21.8892L26.1322 11.7414Z" fill="#6DB48A"/>
<path d="M26.0477 11.8181L25.9625 11.8955L21.5832 6.95093H21.7358L26.0477 11.8181Z" fill="#6EB489"/>
<path d="M25.9625 11.8955L25.8781 11.9729L21.4299 6.95093H21.5832L25.9625 11.8955Z" fill="#6FB488"/>
<path d="M25.8781 11.9729L25.7936 12.0495L21.2772 6.95093H21.4299L25.8781 11.9729Z" fill="#70B587"/>
<path d="M25.7936 12.0495L25.7092 12.1269L21.1246 6.95093H21.2772L25.7936 12.0495Z" fill="#71B586"/>
<path d="M25.7092 12.1269L25.6247 12.2035L20.9713 6.95093H21.1246L25.7092 12.1269Z" fill="#72B585"/>
<path d="M25.6247 12.2035L25.5395 12.2809L20.8186 6.95093H20.9713L25.6247 12.2035Z" fill="#73B584"/>
<path d="M25.5395 12.2809L25.455 12.3583L20.6653 6.95093H20.8186L25.5395 12.2809Z" fill="#74B684"/>
<path d="M25.455 12.3583L25.3706 12.4349L20.5127 6.95093H20.6653L25.455 12.3583Z" fill="#75B683"/>
<path d="M25.3706 12.4349L25.2861 12.5123L20.36 6.95093H20.5127L25.3706 12.4349Z" fill="#76B682"/>
<path d="M25.2861 12.5123L25.2009 12.5897L20.2067 6.95093H20.36L25.2861 12.5123Z" fill="#77B681"/>
<path d="M25.2009 12.5897L25.1165 12.6663L20.0541 6.95093H20.2067L25.2009 12.5897Z" fill="#78B680"/>
<path d="M25.1165 12.6663L25.032 12.7437L19.9311 6.98474L19.9681 6.95093H20.0541L25.1165 12.6663Z" fill="#79B77F"/>
<path d="M19.9317 6.98469L19.8468 7.06201L24.9475 12.821L25.0324 12.7437L19.9317 6.98469Z" fill="#7AB77E"/>
<path d="M19.8467 7.06245L19.7618 7.13977L24.8626 12.8988L24.9474 12.8215L19.8467 7.06245Z" fill="#7BB77D"/>
<path d="M19.7623 7.13969L19.6774 7.21701L24.7781 12.976L24.863 12.8987L19.7623 7.13969Z" fill="#7CB77C"/>
<path d="M19.6781 7.21638L19.5932 7.2937L24.6939 13.0527L24.7788 12.9754L19.6781 7.21638Z" fill="#7DB77B"/>
<path d="M19.5936 7.29363L19.5087 7.37094L24.6095 13.13L24.6943 13.0526L19.5936 7.29363Z" fill="#7EB87A"/>
<path d="M19.5081 7.3708L19.4232 7.44812L24.524 13.2071L24.6088 13.1298L19.5081 7.3708Z" fill="#7FB879"/>
<path d="M19.4237 7.44804L19.3388 7.52536L24.4395 13.2844L24.5244 13.2071L19.4237 7.44804Z" fill="#80B878"/>
<path d="M19.3392 7.52528L19.2543 7.6026L24.3551 13.3616L24.4399 13.2843L19.3392 7.52528Z" fill="#81B878"/>
<path d="M19.255 7.60197L19.1701 7.67929L24.2709 13.4383L24.3557 13.361L19.255 7.60197Z" fill="#82B977"/>
<path d="M19.17 7.6797L19.0851 7.75702L24.1859 13.516L24.2707 13.4387L19.17 7.6797Z" fill="#83B976"/>
<path d="M19.0851 7.75639L19.0002 7.83371L24.1009 13.5927L24.1858 13.5154L19.0851 7.75639Z" fill="#84B975"/>
<path d="M19.0006 7.83363L18.9158 7.91095L24.0165 13.67L24.1013 13.5927L19.0006 7.83363Z" fill="#85B974"/>
<path d="M18.9162 7.91087L18.8313 7.98819L23.932 13.7472L24.0169 13.6699L18.9162 7.91087Z" fill="#86B973"/>
<path d="M18.8312 7.98756L18.7464 8.06488L23.8471 13.8239L23.932 13.7466L18.8312 7.98756Z" fill="#88BA72"/>
<path d="M18.747 8.06529L18.6621 8.14261L23.7628 13.9016L23.8477 13.8243L18.747 8.06529Z" fill="#89BA71"/>
<path d="M18.6625 8.1418L18.5777 8.21912L23.6784 13.9781L23.7632 13.9008L18.6625 8.1418Z" fill="#8ABA70"/>
<path d="M18.5776 8.21846L18.4927 8.29578L23.5934 14.0548L23.6783 13.9775L18.5776 8.21846Z" fill="#8BBA6F"/>
<path d="M18.4931 8.2957L18.4083 8.37302L23.509 14.132L23.5939 14.0547L18.4931 8.2957Z" fill="#8CBA6E"/>
<path d="M18.4077 8.37291L18.3228 8.45023L23.4235 14.2092L23.5084 14.1319L18.4077 8.37291Z" fill="#8DBB6D"/>
<path d="M18.3232 8.45015L18.2383 8.52747L23.339 14.2865L23.4239 14.2092L18.3232 8.45015Z" fill="#8EBB6D"/>
<path d="M18.2395 8.52739L18.1546 8.60471L23.2553 14.3637L23.3402 14.2864L18.2395 8.52739Z" fill="#8FBB6C"/>
<path d="M18.1546 8.60408L18.0697 8.6814L23.1704 14.4404L23.2553 14.3631L18.1546 8.60408Z" fill="#90BB6B"/>
<path d="M18.0695 8.68181L17.9847 8.75912L23.0854 14.5181L23.1703 14.4408L18.0695 8.68181Z" fill="#91BC6A"/>
<path d="M17.9846 8.7585L17.8997 8.83582L23.0004 14.5948L23.0853 14.5175L17.9846 8.7585Z" fill="#92BC69"/>
<path d="M17.9002 8.83574L17.8153 8.91306L22.916 14.6721L23.0009 14.5948L17.9002 8.83574Z" fill="#93BC68"/>
<path d="M17.8165 8.91298L17.7316 8.9903L22.8323 14.7493L22.9172 14.672L17.8165 8.91298Z" fill="#94BC67"/>
<path d="M17.731 8.99016L17.6461 9.06747L22.7468 14.8265L22.8317 14.7492L17.731 8.99016Z" fill="#95BC66"/>
<path d="M17.6465 9.0674L17.5616 9.14471L22.6623 14.9037L22.7472 14.8264L17.6465 9.0674Z" fill="#96BD65"/>
<path d="M17.5621 9.14464L17.4772 9.22195L22.5779 14.981L22.6628 14.9037L17.5621 9.14464Z" fill="#97BD64"/>
<path d="M17.4771 9.22133L17.3922 9.29865L22.4929 15.0577L22.5778 14.9804L17.4771 9.22133Z" fill="#98BD63"/>
<path d="M17.3927 9.29857L17.3078 9.37589L22.4085 15.1349L22.4934 15.0576L17.3927 9.29857Z" fill="#99BD62"/>
<path d="M17.3079 9.37498L17.223 9.4523L22.3237 15.2113L22.4086 15.134L17.3079 9.37498Z" fill="#9ABD61"/>
<path d="M17.2235 9.45225L17.1386 9.52957L22.2393 15.2886L22.3242 15.2113L17.2235 9.45225Z" fill="#9BBE61"/>
<path d="M17.139 9.52949L17.0541 9.60681L22.1548 15.3658L22.2397 15.2885L17.139 9.52949Z" fill="#9CBE60"/>
<path d="M17.0541 9.60615L16.9692 9.68347L22.0699 15.4425L22.1548 15.3652L17.0541 9.60615Z" fill="#9DBE5F"/>
<path d="M16.9691 9.68391L16.8842 9.76123L21.9849 15.5203L22.0698 15.4429L16.9691 9.68391Z" fill="#9EBE5E"/>
<path d="M16.8849 9.76061L16.8 9.83792L21.9007 15.5969L21.9856 15.5196L16.8849 9.76061Z" fill="#9FBF5D"/>
<path d="M16.8004 9.83784L16.7155 9.91516L21.8162 15.6742L21.9011 15.5969L16.8004 9.83784Z" fill="#A0BF5C"/>
<path d="M16.716 9.91509L16.6311 9.9924L21.7318 15.7514L21.8167 15.6741L16.716 9.91509Z" fill="#A1BF5B"/>
<path d="M16.6305 9.99226L16.5456 10.0696L21.6463 15.8286L21.7312 15.7513L16.6305 9.99226Z" fill="#A2BF5A"/>
<path d="M16.546 10.0695L16.4611 10.1468L21.5619 15.9058L21.6467 15.8285L16.546 10.0695Z" fill="#A3BF59"/>
<path d="M16.4611 10.1462L16.3762 10.2235L21.4769 15.9825L21.5618 15.9052L16.4611 10.1462Z" fill="#A4C058"/>
<path d="M16.3774 10.2234L16.2925 10.3008L21.3932 16.0598L21.4781 15.9825L16.3774 10.2234Z" fill="#A5C057"/>
<path d="M16.2924 10.3012L16.2075 10.3785L21.3082 16.1375L21.3931 16.0602L16.2924 10.3012Z" fill="#A6C056"/>
<path d="M16.2074 10.3779L16.1226 10.4552L21.2233 16.2142L21.3081 16.1369L16.2074 10.3779Z" fill="#A7C055"/>
<path d="M16.123 10.4551L16.0381 10.5324L21.1388 16.2914L21.2237 16.2141L16.123 10.4551Z" fill="#A8C155"/>
<path d="M16.0385 10.5323L15.9537 10.6096L21.0544 16.3687L21.1392 16.2914L16.0385 10.5323Z" fill="#A9C154"/>
<path d="M15.9536 10.6083L15.8687 10.6856L20.9694 16.4446L21.0543 16.3673L15.9536 10.6083Z" fill="#AAC153"/>
<path d="M15.8693 10.686L15.7844 10.7633L20.8852 16.5224L20.97 16.445L15.8693 10.686Z" fill="#ABC152"/>
<path d="M15.7844 10.7627L15.6995 10.84L20.8002 16.599L20.8851 16.5217L15.7844 10.7627Z" fill="#ACC151"/>
<path d="M15.6999 10.8399L15.6151 10.9172L20.7158 16.6763L20.8007 16.5989L15.6999 10.8399Z" fill="#ADC250"/>
<path d="M15.6155 10.9172L15.5306 10.9945L20.6313 16.7535L20.7162 16.6762L15.6155 10.9172Z" fill="#AEC24F"/>
<path d="M15.53 10.9944L15.4451 11.0717L20.5458 16.8307L20.6307 16.7534L15.53 10.9944Z" fill="#AFC24E"/>
<path d="M15.4463 11.0716L15.3614 11.1489L20.4621 16.9079L20.547 16.8306L15.4463 11.0716Z" fill="#B0C24D"/>
<path d="M15.3613 11.1483L15.2765 11.2256L20.3772 16.9846L20.4621 16.9073L15.3613 11.1483Z" fill="#B1C24C"/>
<path d="M15.2769 11.2255L15.192 11.3028L20.2927 17.0618L20.3776 16.9845L15.2769 11.2255Z" fill="#B2C34B"/>
<path d="M15.1919 11.3033L15.107 11.3806L20.2077 17.1396L20.2926 17.0623L15.1919 11.3033Z" fill="#B3C34A"/>
<path d="M15.107 11.38L15.0221 11.4573L20.1228 17.2163L20.2077 17.139L15.107 11.38Z" fill="#B4C34A"/>
<path d="M15.0225 11.4572L14.9376 11.5345L20.0383 17.2935L20.1232 17.2162L15.0225 11.4572Z" fill="#B5C349"/>
<path d="M14.9388 11.5344L14.8539 11.6118L19.9546 17.3708L20.0395 17.2935L14.9388 11.5344Z" fill="#B6C448"/>
<path d="M14.8533 11.6116L14.7684 11.6889L19.8691 17.448L19.954 17.3706L14.8533 11.6116Z" fill="#B7C447"/>
<path d="M14.7689 11.6889L14.684 11.7662L19.7847 17.5252L19.8696 17.4479L14.7689 11.6889Z" fill="#B8C446"/>
<path d="M14.6839 11.7655L14.599 11.8429L19.6997 17.6019L19.7846 17.5246L14.6839 11.7655Z" fill="#B9C445"/>
<path d="M14.5995 11.842L14.5146 11.9193L19.6153 17.6784L19.7002 17.601L14.5995 11.842Z" fill="#BAC444"/>
<path d="M14.515 11.9193L14.4301 11.9966L19.5308 17.7556L19.6157 17.6783L14.515 11.9193Z" fill="#BBC543"/>
<path d="M14.4303 11.9964L14.3454 12.0738L19.4461 17.8328L19.531 17.7555L14.4303 11.9964Z" fill="#BCC542"/>
<path d="M14.3458 12.0737L14.2609 12.151L19.3616 17.91L19.4465 17.8327L14.3458 12.0737Z" fill="#BDC541"/>
<path d="M14.2609 12.1504L14.176 12.2277L19.2767 17.9867L19.3616 17.9094L14.2609 12.1504Z" fill="#BEC540"/>
<path d="M14.1764 12.2276L14.0915 12.3049L19.1922 18.064L19.2771 17.9866L14.1764 12.2276Z" fill="#BFC53F"/>
<path d="M14.0914 12.3054L14.0065 12.3827L19.1072 18.1417L19.1921 18.0644L14.0914 12.3054Z" fill="#C0C63E"/>
<path d="M14.0072 12.382L13.9223 12.4594L19.023 18.2184L19.1079 18.1411L14.0072 12.382Z" fill="#C1C63E"/>
<path d="M13.9228 12.4593L13.8379 12.5366L18.9386 18.2956L19.0235 18.2183L13.9228 12.4593Z" fill="#C2C63D"/>
<path d="M13.8378 12.536L13.7529 12.6133L18.8536 18.3723L18.9385 18.295L13.8378 12.536Z" fill="#C3C63C"/>
<path d="M13.7528 12.6137L13.6679 12.691L18.7686 18.4501L18.8535 18.3727L13.7528 12.6137Z" fill="#C4C73B"/>
<path d="M13.6684 12.691L13.5835 12.7683L18.6842 18.5273L18.7691 18.45L13.6684 12.691Z" fill="#C5C73A"/>
<path d="M13.5834 12.7676L13.4985 12.8449L18.5993 18.604L18.6841 18.5266L13.5834 12.7676Z" fill="#C6C739"/>
<path d="M13.4997 12.8449L13.4148 12.9222L18.5155 18.6812L18.6004 18.6039L13.4997 12.8449Z" fill="#C7C738"/>
<path d="M13.4147 12.9226L13.3298 12.9999L18.4305 18.759L18.5154 18.6816L13.4147 12.9226Z" fill="#C8C737"/>
<path d="M13.3298 12.9993L13.2449 13.0766L18.3456 18.8357L18.4305 18.7583L13.3298 12.9993Z" fill="#C9C836"/>
<path d="M13.2453 13.0758L13.1604 13.1531L18.2612 18.9121L18.346 18.8348L13.2453 13.0758Z" fill="#CAC835"/>
<path d="M13.1604 13.1525L13.0755 13.2298L18.1762 18.9888L18.2611 18.9115L13.1604 13.1525Z" fill="#CBC834"/>
<path d="M13.0759 13.2297L12.9911 13.307L18.0918 19.0661L18.1766 18.9887L13.0759 13.2297Z" fill="#CCC833"/>
<path d="M12.9917 13.3074L12.9068 13.3848L18.0075 19.1438L18.0924 19.0665L12.9917 13.3074Z" fill="#CDC933"/>
<path d="M12.9067 13.3841L12.8219 13.4615L17.9226 19.2205L18.0074 19.1432L12.9067 13.3841Z" fill="#CEC932"/>
<path d="M12.8223 13.4614L12.7374 13.5387L17.8381 19.2977L17.923 19.2204L12.8223 13.4614Z" fill="#CFC931"/>
<path d="M12.7373 13.5381L12.6525 13.6154L17.7532 19.3744L17.8381 19.2971L12.7373 13.5381Z" fill="#D0C930"/>
<path d="M12.6523 13.6158L12.5675 13.6931L17.6682 19.4521L17.7531 19.3748L12.6523 13.6158Z" fill="#D1C92F"/>
<path d="M12.5686 13.6931L12.4837 13.7704L17.5845 19.5294L17.6693 19.4521L12.5686 13.6931Z" fill="#D2CA2E"/>
<path d="M12.4837 13.7697L12.3988 13.847L17.4995 19.6061L17.5844 19.5288L12.4837 13.7697Z" fill="#D3CA2D"/>
<path d="M12.3992 13.847L12.3144 13.9243L17.4151 19.6833L17.4999 19.606L12.3992 13.847Z" fill="#D4CA2C"/>
<path d="M12.3137 13.9241L12.2289 14.0015L17.3296 19.7605L17.4145 19.6832L12.3137 13.9241Z" fill="#D5CA2B"/>
<path d="M12.2293 14.0014L12.1444 14.0787L17.2451 19.8378L17.33 19.7604L12.2293 14.0014Z" fill="#D6CA2A"/>
<path d="M12.1448 14.0787L12.06 14.156L17.1607 19.915L17.2456 19.8377L12.1448 14.0787Z" fill="#D7CB29"/>
<path d="M12.0606 14.1553L11.9758 14.2326L17.0765 19.9917L17.1614 19.9143L12.0606 14.1553Z" fill="#D8CB28"/>
<path d="M11.9756 14.2331L11.8908 14.3104L16.9915 20.0694L17.0764 19.9921L11.9756 14.2331Z" fill="#D9CB27"/>
<path d="M11.8912 14.3103L11.8063 14.3876L16.907 20.1467L16.9919 20.0693L11.8912 14.3103Z" fill="#DACB27"/>
<path d="M11.8062 14.3862L11.7214 14.4636L16.8221 20.2226L16.907 20.1453L11.8062 14.3862Z" fill="#DBCC26"/>
<path d="M11.7218 14.4635L11.6369 14.5408L16.7376 20.2998L16.8225 20.2225L11.7218 14.4635Z" fill="#DCCC25"/>
<path d="M11.6376 14.5402L11.5527 14.6175L16.6534 20.3765L16.7383 20.2992L11.6376 14.5402Z" fill="#DDCC24"/>
<path d="M11.5526 14.6179L11.4677 14.6952L16.5684 20.4542L16.6533 20.3769L11.5526 14.6179Z" fill="#DECC23"/>
<path d="M11.4682 14.6951L11.3833 14.7725L16.484 20.5315L16.5689 20.4542L11.4682 14.6951Z" fill="#DFCC22"/>
<path d="M11.3832 14.7718L11.2983 14.8492L16.399 20.6082L16.4839 20.5309L11.3832 14.7718Z" fill="#E0CD21"/>
<path d="M11.2988 14.8491L11.2139 14.9264L16.3146 20.6854L16.3995 20.6081L11.2988 14.8491Z" fill="#E1CD20"/>
<path d="M11.2133 14.9263L11.1284 15.0036L16.2291 20.7626L16.314 20.6853L11.2133 14.9263Z" fill="#E2CD1F"/>
<path d="M11.1296 15.0035L11.0447 15.0808L16.1454 20.8398L16.2303 20.7625L11.1296 15.0035Z" fill="#E3CD1E"/>
<path d="M11.0451 15.0807L10.9602 15.1581L16.0609 20.9171L16.1458 20.8398L11.0451 15.0807Z" fill="#E4CD1D"/>
<path d="M10.9602 15.1574L10.8753 15.2347L15.976 20.9938L16.0609 20.9164L10.9602 15.1574Z" fill="#E5CE1C"/>
<path d="M10.8752 15.2352L10.7903 15.3125L15.891 21.0715L15.9759 20.9942L10.8752 15.2352Z" fill="#E6CE1B"/>
<path d="M10.7907 15.3124L10.7058 15.3897L15.8065 21.1488L15.8914 21.0714L10.7907 15.3124Z" fill="#E7CE1B"/>
<path d="M10.7058 15.3891L10.6209 15.4664L15.7216 21.2254L15.8065 21.1481L10.7058 15.3891Z" fill="#E8CE1A"/>
<path d="M10.6221 15.4663L10.5372 15.5436L15.6379 21.3027L15.7228 21.2253L10.6221 15.4663Z" fill="#E9CF19"/>
<path d="M10.5371 15.543L10.4522 15.6203L15.553 21.3794L15.6378 21.302L10.5371 15.543Z" fill="#EACF18"/>
<path d="M10.4521 15.62L10.3672 15.6973L15.4679 21.4563L15.5528 21.379L10.4521 15.62Z" fill="#EBCF17"/>
<path d="M10.3677 15.6972L10.2828 15.7746L15.3835 21.5336L15.4684 21.4563L10.3677 15.6972Z" fill="#ECCF16"/>
<path d="M10.2827 15.7739L10.1978 15.8513L15.2986 21.6103L15.3834 21.533L10.2827 15.7739Z" fill="#EDCF15"/>
<path d="M10.199 15.8512L10.1141 15.9285L15.2148 21.6875L15.2997 21.6102L10.199 15.8512Z" fill="#EED014"/>
<path d="M10.1135 15.9284L10.0286 16.0057L15.1294 21.7647L15.2142 21.6874L10.1135 15.9284Z" fill="#EFD013"/>
<path d="M10.0291 16.0056L9.9442 16.0829L15.0449 21.8419L15.1298 21.7646L10.0291 16.0056Z" fill="#F0D012"/>
<path d="M9.94463 16.0828L9.85975 16.1602L14.9605 21.9192L15.0453 21.8419L9.94463 16.0828Z" fill="#F1D011"/>
<path d="M9.85969 16.1595L9.7748 16.2368L14.8755 21.9959L14.9604 21.9186L9.85969 16.1595Z" fill="#F2D010"/>
<path d="M9.77469 16.2373L9.6898 16.3146L14.7905 22.0736L14.8754 21.9963L9.77469 16.2373Z" fill="#F3D110"/>
<path d="M9.69048 16.3139L9.6056 16.3913L14.7063 22.1503L14.7912 22.073L9.69048 16.3139Z" fill="#F4D10F"/>
<path d="M9.60603 16.3912L9.52115 16.4685L14.6219 22.2275L14.7067 22.1502L9.60603 16.3912Z" fill="#F5D10E"/>
<path d="M9.52158 16.4684L9.4367 16.5457L14.5374 22.3048L14.6223 22.2275L9.52158 16.4684Z" fill="#F6D10D"/>
<path d="M9.43609 16.5456L9.3512 16.6229L14.4519 22.3819L14.5368 22.3046L9.43609 16.5456Z" fill="#F7D20C"/>
<path d="M9.35164 16.6228L9.26676 16.7002L14.3675 22.4592L14.4524 22.3819L9.35164 16.6228Z" fill="#F8D20B"/>
<path d="M9.26719 16.7001L9.18231 16.7774L14.283 22.5364L14.3679 22.4591L9.26719 16.7001Z" fill="#F9D20A"/>
<path d="M14.2834 22.5351L12.5201 24.1415H1.82996V23.4743L9.18243 16.7762L14.2834 22.5351Z" fill="#F9D20A"/>
</g>
</g>
<defs>
<clipPath id="clip0_293_4931">
<rect width="125" height="26" fill="white" transform="translate(0 0.000335693)"/>
</clipPath>
</defs>
</svg>
